<svg version="1.1" id="Layer_1" xmlns="http://www.w3.org/2000/svg" 
viewBox="0 0 100 100" >

	<path d="M85.6,47.6c0.3,0.3,0.4,0.6,0.4,1c0,0.4-0.1,0.8-0.3,1.1l-3.1,3.9c-0.3,0.3-0.6,0.5-1,0.5c-0.4,0-0.8-0.1-1.1-0.4L51,29.6
		c-0.3-0.3-0.7-0.4-1-0.4s-0.7,0.1-1,0.4L19.6,53.8c-0.3,0.3-0.7,0.4-1.1,0.4s-0.8-0.2-1-0.5l-3.1-3.9C14.1,49.4,14,49,14,48.6
		c0-0.4,0.2-0.8,0.4-1l31.8-26.2c1.1-0.9,2.3-1.4,3.8-1.4c1.4,0,2.7,0.5,3.9,1.4L65,30.7v-9.1c0-0.4,0.1-0.8,0.4-1.1
		c0.3-0.3,0.6-0.4,1.1-0.4h7c0.4,0,0.8,0.1,1.1,0.4c0.3,0.3,0.4,0.6,0.4,1.1V39L85.6,47.6z M75.1,55.3c0-0.5-0.2-0.9-0.5-1.3
		L51,34.7c-0.3-0.3-0.7-0.4-1-0.4s-0.7,0.1-1,0.4L25.5,54c-0.3,0.3-0.5,0.8-0.5,1.3v17.9c0,0.8,0.3,1.5,0.9,2.1
		c0.6,0.6,1.3,0.9,2.1,0.9h14.5c0.4,0,0.8-0.1,1.1-0.4c0.3-0.3,0.4-0.6,0.4-1.1v-14c0-0.4,0.1-0.8,0.4-1.1c0.3-0.3,0.6-0.4,1.1-0.4
		h9c0.4,0,0.8,0.1,1.1,0.4c0.3,0.3,0.4,0.6,0.4,1.1v14c0,0.4,0.1,0.8,0.4,1.1c0.3,0.3,0.6,0.4,1.1,0.4h14.5c0.8,0,1.5-0.3,2.1-0.9
		c0.6-0.6,0.9-1.3,0.9-2.1V55.3z"/>
</svg>
