<svg version="1.1" id="Layer_1" xmlns="http://www.w3.org/2000/svg" 
	 viewBox="0 0 100 100">
<path d="M44.1,70.1V52.2h-2.5c-0.7,0-1.2-0.2-1.7-0.7s-0.7-1.1-0.7-1.7v-6c0-0.7,0.2-1.2,0.7-1.7s1.1-0.7,1.7-0.7h13.9
	c0.7,0,1.2,0.2,1.7,0.7s0.7,1.1,0.7,1.7v26.3h2.5c0.7,0,1.2,0.2,1.7,0.7s0.7,1.1,0.7,1.7v6c0,0.7-0.2,1.2-0.7,1.7S61.2,81,60.5,81
	H41.7c-0.7,0-1.2-0.2-1.7-0.7s-0.7-1.1-0.7-1.7v-6c0-0.7,0.2-1.2,0.7-1.7s1.1-0.7,1.7-0.7H44.1z"/>
<path d="M44.8,20.1c-1.7,1.7-2.6,3.8-2.6,6.3s0.9,4.6,2.6,6.3s3.8,2.6,6.3,2.6s4.6-0.9,6.3-2.6s2.6-3.8,2.6-6.3s-0.9-4.6-2.6-6.3
	s-3.8-2.6-6.3-2.6S46.5,18.4,44.8,20.1z"/>

</svg>
