<?xml version="1.0" encoding="utf-8"?>
<!-- Generator: Adobe Illustrator 23.0.1, SVG Export Plug-In . SVG Version: 6.00 Build 0)  -->
<svg version="1.1" id="Layer_1" xmlns="http://www.w3.org/2000/svg" xmlns:xlink="http://www.w3.org/1999/xlink" x="0px" y="0px"
	 width="100px" height="100px" viewBox="0 0 100 100" style="enable-background:new 0 0 100 100;" xml:space="preserve">
<path d="M17.3,41.3L32,35.4c0.6,1.8,1.4,3.7,2.6,5.8V70l-17.1,7.8c-0.7,0.2-1.3,0.2-1.9-0.2c-0.6-0.4-0.9-0.9-0.9-1.6V45
	c0-0.8,0.2-1.6,0.7-2.2C16,42.1,16.6,41.6,17.3,41.3z"/>
<path d="M63.9,22.4c-1.4-2.4-3.3-4.3-5.7-5.7c-2.4-1.4-5-2.1-7.8-2.1c-2.8,0-5.4,0.7-7.8,2.1c-2.4,1.4-4.3,3.3-5.7,5.7
	c-1.4,2.4-2.1,5-2.1,7.8c0,3,1.9,7.4,5.6,13c2.4,3.5,5.2,7.3,8.5,11.3c0.4,0.5,0.9,0.7,1.5,0.7c0.6,0,1.1-0.3,1.5-0.7
	c3.3-4,6.1-7.7,8.5-11.3c3.7-5.6,5.6-9.9,5.6-13C66,27.4,65.3,24.8,63.9,22.4z M54.1,33.8c-1,1-2.3,1.6-3.7,1.6
	c-1.4,0-2.6-0.5-3.6-1.6c-1-1-1.5-2.2-1.5-3.6c0-1.4,0.5-2.6,1.5-3.7c1-1,2.2-1.5,3.6-1.5c1.4,0,2.6,0.5,3.7,1.5
	c1,1,1.5,2.2,1.5,3.7C55.6,31.6,55.1,32.8,54.1,33.8z"/>
<path d="M50.4,59.1c1.8,0,3.3-0.7,4.6-2.1c2.7-3.3,5.1-6.5,7.3-9.5v30.4L38.6,70V47.5c2.1,3,4.6,6.2,7.3,9.5
	C47.1,58.4,48.6,59.1,50.4,59.1z"/>
<path d="M55.6,30.2c0,1.4-0.5,2.6-1.5,3.6c-1,1-2.3,1.6-3.7,1.6c-1.4,0-2.6-0.5-3.6-1.6c-1-1-1.6-2.2-1.6-3.6c0-1.4,0.5-2.6,1.6-3.7
	c1-1,2.3-1.5,3.6-1.5c1.4,0,2.6,0.5,3.7,1.5C55.1,27.6,55.6,28.8,55.6,30.2z"/>
<path d="M83.3,34.5c0.7-0.2,1.3-0.2,1.9,0.2c0.6,0.4,0.9,0.9,0.9,1.6v30.9c0,0.8-0.2,1.6-0.7,2.2c-0.5,0.7-1.1,1.2-1.8,1.5
	l-17.3,6.9V42.3L83.3,34.5z"/>
<g>
</g>
<g>
</g>
<g>
</g>
<g>
</g>
<g>
</g>
</svg>
