<svg version="1.1" id="Layer_1" xmlns="http://www.w3.org/2000/svg" 
	 viewBox="0 0 100 100">

	<path d="M50,15.6c6.3,0,12.1,1.5,17.4,4.6s9.6,7.2,12.7,12.4s4.7,10.9,4.7,17s-1.6,11.8-4.7,17C77,72,72.8,76.1,67.4,79.2
		S56.3,83.8,50,83.8s-12.1-1.5-17.4-4.6S23,72,19.8,66.7c-3.1-5.2-4.7-10.9-4.7-17s1.6-11.8,4.7-17s7.4-9.4,12.7-12.4
		S43.7,15.6,50,15.6z M50,21.1c-5.3,0-10.2,1.3-14.7,3.8c-4.5,2.6-8,6-10.6,10.4s-3.9,9.1-3.9,14.4c0,5.2,1.3,10,3.9,14.4
		s6.2,7.8,10.6,10.4c4.5,2.6,9.4,3.8,14.7,3.8s10.2-1.3,14.7-3.8c4.5-2.6,8-6,10.6-10.4s3.9-9.1,3.9-14.4c0-5.2-1.3-10-3.9-14.4
		S69.1,27.5,64.7,25C60.2,22.4,55.3,21.1,50,21.1z M50,23.3c4.9,0,9.4,1.2,13.5,3.6c4.1,2.4,7.4,5.6,9.8,9.6S77,44.9,77,49.7
		c0,4.8-1.2,9.2-3.7,13.2c-2.4,4-5.7,7.2-9.8,9.6c-4.1,2.4-8.6,3.6-13.5,3.6s-9.4-1.2-13.5-3.6c-4.1-2.4-7.4-5.6-9.8-9.6
		c-2.4-4-3.7-8.4-3.7-13.2c0-4.8,1.2-9.2,3.7-13.2s5.7-7.2,9.8-9.6C40.6,24.5,45.1,23.3,50,23.3z M66.6,42.8c0.6-0.1,1-0.4,1.3-1
		s0.4-1.1,0.3-1.7s-0.5-1.1-1-1.4s-1.1-0.4-1.8-0.2c-4.7,1.1-8.3,1.8-11,2.1c-3,0.4-6,0.4-9,0c-2.6-0.3-6.3-1-11-2.1
		c-0.7-0.2-1.2-0.1-1.8,0.2s-0.8,0.8-1,1.4s0,1.1,0.3,1.6c0.3,0.5,0.8,0.8,1.3,1c5,1.1,8.8,1.8,11.5,2.2c0,5.8-0.3,10.3-1,13.6
		c-0.4,2-1.1,4.3-2.1,6.9l-0.4,0.8c-0.2,0.6-0.1,1.3,0.1,1.9c0.3,0.6,0.8,1.1,1.4,1.3c0.7,0.2,1.3,0.2,1.9-0.1
		c0.6-0.3,1.1-0.7,1.3-1.2l0.4-1c0.7-1.7,1.2-3.2,1.5-4.3c0.5-1.6,0.8-3.5,1.1-5.6h1.4c0.3,2.1,0.7,4,1.1,5.6
		c0.4,1.1,0.9,2.5,1.5,4.3l0.4,1c0.3,0.5,0.7,1,1.3,1.2c0.6,0.3,1.2,0.3,1.9,0.1c0.7-0.2,1.1-0.7,1.4-1.3c0.3-0.6,0.3-1.3,0.1-1.9
		l-0.4-0.8c-1-2.6-1.7-4.9-2.1-6.9c-0.7-3.3-1-7.8-1-13.6C57.8,44.7,61.6,43.9,66.6,42.8z M50,29.4c-1.4,0-2.6,0.5-3.6,1.4
		s-1.5,2.1-1.5,3.5c0,1.4,0.5,2.5,1.5,3.5s2.2,1.4,3.6,1.4s2.6-0.5,3.6-1.4s1.5-2.1,1.5-3.5c0-1.4-0.5-2.5-1.5-3.5
		S51.4,29.4,50,29.4z"/>
</svg>
