<svg version="1.1" id="Layer_1" xmlns="http://www.w3.org/2000/svg" 
	 viewBox="0 0 100 100">
<style type="text/css">
	.st0{fill:#FFFF97;stroke:#09E5C7;stroke-width:0.25;stroke-miterlimit:10;}
	.st1{fill:url(#SVGID_1_);stroke:#E3FFD6;stroke-width:0.75;stroke-miterlimit:10;}
	.st2{fill:#00F4D5;stroke:#FF60FF;stroke-width:0.5;stroke-miterlimit:10;}
	.st3{fill:#FFBA52;stroke:#0958C7;stroke-width:0.25;stroke-miterlimit:10;}
	.st4{fill:url(#SVGID_2_);}
	.st5{fill:none;}
	.st6{fill:#63BBFF;stroke:#E3FF4A;stroke-width:0.5;stroke-miterlimit:10;}
</style>
	<polygon class="st0" points="13.5,59.6 38.6,80.6 64.8,70.9 70,65.8 74.9,37 49.8,16.1 19.1,27.4 	"/>
	<linearGradient id="SVGID_1_" gradientUnits="userSpaceOnUse" x1="81.3711" y1="35.429" x2="50.5846" y2="66.2155">
		<stop  offset="0.2346" style="stop-color:#3DDEED"/>
		<stop  offset="0.3103" style="stop-color:#3DDEED;stop-opacity:0.861"/>
		<stop  offset="0.7793" style="stop-color:#3DDEED;stop-opacity:0"/>
	</linearGradient>
	<path class="st1" d="M87.1,54.7c-0.8,4.7-2.4,8.6-4.8,11.7c-2.9,3.8-6.4,5.7-10.8,5.7c-1.1,0-2.2-0.3-3.5-1
		c-0.9-0.5-1.8-0.8-2.9-0.8c-1.1,0-2,0.3-2.9,0.8c-1.3,0.7-2.4,1-3.5,1c-0.9,0-1.8-0.1-2.6-0.3c0.3-0.4,0.5-0.8,0.7-1.3
		c2.3-0.2,4.8-1.7,5.2-4.1c0.6-4.3,0.9-8.8-0.7-12.9c-1.9-5-6.4-8.3-11.9-7.9c-2.6,0.2-4.9,1.9-5.5,4.4c-0.4,0-0.7,0-1.1,0.1
		c0-1.3,0.1-2.7,0.3-4c0.5-3.1,1.5-5.7,3-7.7c1.6-2.3,3.8-3.7,6.4-4.1c1.6-0.3,3.8,0,6.6,0.7c2.4,0.7,4.4,1.5,6.1,2.4
		c1.7-0.9,3.7-1.7,6.1-2.4c2.8-0.7,5-0.9,6.6-0.7c2.6,0.5,4.7,1.8,6.4,4.1c1.5,2,2.5,4.6,3,7.7C87.7,49,87.7,51.9,87.1,54.7z"/>
	<g>
		<path class="st2" d="M60.1,46.7c0.8,0,1.3,0.3,1.7,1c0.4,0.6,0.4,1.3,0,1.9L47.6,74c-0.4,0.6-0.9,1-1.7,1c-0.6,0-1.2-0.2-1.5-0.7
			c-0.4-0.5-0.5-1-0.3-1.7L47.8,57h-9.6c-0.6,0-1.1-0.2-1.4-0.6c-0.4-0.4-0.5-0.9-0.5-1.5l2.6-19.3c0.1-0.5,0.3-0.9,0.6-1.2
			c0.4-0.3,0.8-0.5,1.3-0.5h11.6c0.6,0,1.2,0.3,1.5,0.8c0.4,0.5,0.5,1.1,0.3,1.7l-3.4,10.5H60.1z"/>
	</g>
	<ellipse class="st3" cx="39.8" cy="52.1" rx="12" ry="11.4"/>
	<g>
		<linearGradient id="SVGID_2_" gradientUnits="userSpaceOnUse" x1="57.7492" y1="58.4941" x2="88.0101" y2="58.4941">
			<stop  offset="0" style="stop-color:#FFFFFF"/>
			<stop  offset="0.7626" style="stop-color:#FF4B52"/>
			<stop  offset="0.8017" style="stop-color:#FF4249"/>
		</linearGradient>
		<path class="st4" d="M88,58.5c0,2.7-0.7,5.2-2,7.6c-1.4,2.3-3.2,4.2-5.5,5.5c-2.3,1.4-4.8,2-7.6,2c-2.7,0-5.3-0.7-7.6-2
			c-2.3-1.4-4.2-3.2-5.5-5.5c-1.4-2.3-2-4.8-2-7.6c0-2.7,0.7-5.3,2-7.6c1.4-2.3,3.2-4.2,5.5-5.5c2.3-1.4,4.8-2,7.6-2
			c2.7,0,5.2,0.7,7.6,2c2.3,1.4,4.2,3.2,5.5,5.5C87.3,53.2,88,55.8,88,58.5z"/>
	</g>
	<g>
		<rect x="22.1" y="32.2" class="st5" width="52" height="21.2"/>
	</g>
	<g>
		<path class="st6" d="M53.9,48.2c0.6,0,1.1,0.3,1.5,0.8s0.3,1.1,0,1.7l-12.2,21c-0.3,0.6-0.8,0.8-1.4,0.8c-0.6,0-1-0.2-1.3-0.6
			c-0.3-0.4-0.4-0.9-0.3-1.5L43.3,57h-8.2c-0.5,0-0.9-0.2-1.2-0.6c-0.3-0.4-0.5-0.8-0.4-1.3l2.2-16.6c0-0.4,0.2-0.8,0.6-1
			c0.3-0.3,0.7-0.4,1.1-0.4h9.9c0.6,0,1,0.2,1.3,0.7c0.3,0.4,0.4,0.9,0.3,1.4l-2.9,9H53.9z"/>
	</g>

</svg>
