<svg width="100" height="100" version="1.1" viewBox="0 0 100 100" xmlns="http://www.w3.org/2000/svg">
 <g transform="translate(0 -270.54)" stroke-width=".14451">
  <path d="m10.817 320.69v-49.712h78.325v99.424h-78.325z" fill="#fdfdfd"/>
  <path d="m36.996 365.64-0.48305-0.11421-0.1251-0.12511-0.1251-0.1251 0.11823-0.1913 0.11823-0.19131 1.154 0.34575 0.31033-0.16609 0.31033-0.16608v-0.55674l-1.2283-0.326-0.6503-0.60259v-0.62179l0.35413-0.33269 0.35412-0.33268 1.3142 0.0264 0.56802 0.30399-0.08646 0.22532-0.08646 0.22531-0.61113-0.1638-0.57804-0.1606-0.56714 0.41609 0.18033 0.21729 0.18033 0.21729 0.93898 0.1762 0.64034 0.44852v0.86968l-0.29242 0.5464-0.54022 0.15003-0.54022 0.15002-0.14452-0.028-0.48305-0.11421zm-19.613-0.18832-0.07199-0.1876 0.0808-4.0324 0.6503-0.0924v3.9219h1.7341v0.57804h-2.3213zm3.0337-3e-3 -0.07307-0.19041 0.08294-3.0152 2.2635-0.0848-0.04929 0.25918-0.04929 0.25919-1.5147 0.0874v0.85196h1.3218l-0.04797 0.2529-0.04797 0.25289-1.2259 0.0888v0.85045h1.5896v0.57804h-2.1767zm2.9909-1.0018 0.44482-1.1922 0.35867-1.0116 0.76745-0.0914 0.15935 0.40699 0.15935 0.407 0.97686 2.6735h-0.7324l-0.30226-0.86706h-1.2874l-0.30226 0.86706h-0.68701zm1.5646-0.43354-0.0065-0.18064-0.18412-0.43182-0.18411-0.43182-0.34129 0.97903v0.24589h0.72256l-0.0065-0.18064zm1.803 1.4354-0.07307-0.19041 0.08294-3.0152 1.3468-0.087 1.0481 0.4379 0.22117 0.52934 0.22117 0.52933-0.0994 0.58836-0.0994 0.58837-0.80975 0.80974h-1.7654zm1.726-0.57335 0.25397-0.18571 0.07643-0.57298 0.07643-0.57297-0.62654-0.79481h-0.84609v2.3122h0.81183zm1.7423 0.57335-0.07307-0.19041 0.04147-1.5076 0.04148-1.5076 2.2635-0.0848-0.04929 0.25918-0.04929 0.25919-1.5147 0.0874v0.85196h1.3218l-0.04797 0.2529-0.04797 0.25289-1.2259 0.0888v0.85045h1.5896v0.57804h-2.1767zm3.0347 0-0.07307-0.19041 0.08294-3.0152 1.2774-0.0912 0.65328 0.164 0.45374 0.45374v0.86023l-0.75276 0.69763 0.89728 1.0886v0.22317h-0.69898l-0.59229-0.95834-0.29369-0.26578-0.29369-0.26579v1.4899h-0.58712zm1.4431-1.8784 0.2601-0.19019-0.10606-0.55894-0.93696-0.0906v1.0299h0.5228zm7.2287 1.8812-0.07199-0.1876 0.0808-4.0324 2.3844-0.084v0.58974h-1.7341v1.3006h1.4663l-0.04802 0.25289-0.04802 0.2529-0.68513 0.044-0.68513 0.0441v2.0073h-0.58712zm3.1506-0.13756-0.30459-0.32515-0.16474-0.43353-0.16474-0.43354 0.09078-0.60799 0.09078-0.608 0.43669-0.36746 0.43669-0.36745h1.3007l0.84484 0.84484 0.0458 0.81704-0.02203 0.28902-0.02203 0.28903-0.14974 0.6423-0.62904 0.58604h-1.4847zm1.5796-0.34754 0.26427-0.23917v-1.4896l-0.18064-0.22979-0.18064-0.2298-0.64549-0.1916-0.76248 0.76248 0.07272 0.64517 0.07272 0.64518 0.51251 0.56632h0.58275zm1.9163 0.48229-0.07307-0.19041 0.08294-3.0152 1.2774-0.0912 0.65328 0.164 0.45374 0.45374v0.86023l-0.75276 0.69763 0.89728 1.0886v0.22317h-0.69898l-0.59229-0.95834-0.29369-0.26578-0.29369-0.26579v1.4899h-0.58712zm1.4431-1.8784 0.2601-0.19019-0.05302-0.27947-0.05303-0.27947-0.93696-0.0906v1.0299h0.5228zm4.7085 0.12625v-1.9426l-1.2283-0.0888v-0.43353l3.1301-0.0822-0.04893 0.2579-0.04894 0.2579-1.2259 0.0888v3.8852h-0.57804zm2.058 1.6174-0.30459-0.32515-0.16474-0.43353-0.16474-0.43354 0.09078-0.60799 0.09078-0.608 0.43669-0.36746 0.43669-0.36745h1.3007l0.84484 0.84484 0.0458 0.81704-0.02203 0.28902-0.02203 0.28903-0.14974 0.6423-0.62904 0.58604h-1.4847zm1.5796-0.34754 0.26427-0.23917v-1.4896l-0.18064-0.22979-0.18064-0.2298-0.64549-0.1916-0.76248 0.76248 0.07272 0.64517 0.07272 0.64518 0.51251 0.56632h0.58275zm1.7672-0.59178 0.09755-1.2645 0.16584-0.93932h0.78402l0.34074 1.0865 0.34073 1.0865 0.21091-0.22204 0.27273-0.93932 0.27274-0.93932 0.88594-0.0876 0.17162 1.3882 0.09701 1.0477 0.09701 1.0477h-0.58447l-0.08772-0.22858-0.08772-0.22859-0.0022-0.60235-0.0022-0.60236-0.22829-0.35948-0.65656 2.0386-0.60511-0.0894-0.39757-1.1561-0.39757-1.1561-0.01133 0.52174-0.01133 0.52175-0.1838 1.3409h-0.57851l0.09755-1.2645zm4.8904 0.93932-0.30459-0.32515-0.16474-0.43353-0.16474-0.43354 0.09078-0.60799 0.09078-0.608 0.43669-0.36746 0.43669-0.36745h1.3007l0.84484 0.84484 0.0458 0.81704-0.02203 0.28902-0.02203 0.28903-0.14974 0.6423-0.62904 0.58604h-1.4848zm1.5796-0.34754 0.26427-0.23917v-1.4896l-0.18064-0.22979-0.18064-0.2298-0.64549-0.1916-0.76248 0.76248 0.07272 0.64517 0.07272 0.64518 0.51251 0.56632h0.58275zm1.9163 0.48229-0.07307-0.19041 0.08294-3.0152 1.2774-0.0912 0.65328 0.164 0.45374 0.45374v0.86023l-0.75276 0.69763 0.89728 1.0886v0.22317h-0.69897l-0.59229-0.95834-0.29369-0.26578-0.29369-0.26579v1.4899h-0.58712zm1.4431-1.8784 0.2601-0.19019-0.05303-0.27947-0.05302-0.27947-0.93696-0.0906v1.0299h0.5228zm1.8807 1.8784-0.07307-0.19041 0.08294-3.0152 1.2774-0.0912 0.65328 0.164 0.45374 0.45374v0.86023l-0.75276 0.69763 0.89728 1.0886v0.22317h-0.69898l-0.59229-0.95834-0.29369-0.26578-0.29369-0.26579v1.4899h-0.58712zm1.4431-1.8784 0.2601-0.19019-0.10606-0.55894-0.93696-0.0906v1.0299h0.5228zm2.1421 1.7437-0.30459-0.32515-0.16474-0.43353-0.16474-0.43354 0.09078-0.60799 0.09078-0.608 0.43669-0.36746 0.43669-0.36745h1.3007l0.84484 0.84484 0.0458 0.81704-0.02203 0.28902-0.02203 0.28903-0.14974 0.6423-0.62904 0.58604h-1.4848zm1.5796-0.34754 0.26427-0.23917v-1.4896l-0.18064-0.22979-0.18064-0.2298-0.64549-0.1916-0.76248 0.76248 0.07272 0.64517 0.07272 0.64518 0.51251 0.56632h0.58275zm2.2874 0.60285v-0.0698l-0.43353-1.5944-0.43354-1.5944v-0.1397h0.69791l0.25391 1.077 0.25391 1.077 0.10103-0.0624 0.10103-0.0624 0.09296-0.46479 0.09296-0.4648 0.29609-1.0996h0.68779l0.52118 2.0232h0.161l0.26271-1.0198 0.26271-1.0198 0.62244 0.0888-0.04108 0.2245-0.78681 3.1715h-0.8016l-0.28033-1.12-0.28033-1.12-0.53615 2.2399h-0.81422zm-46.943-6.8856-0.62708-0.14775 0.10141-0.89214 0.10141-0.89214 0.08078-0.0892 0.51588 0.21554 0.51588 0.21555 1.29 0.1934 1.0324-0.34071 0.21722-0.31012 0.21722-0.31011v-0.60787l-0.65807-0.61823-2.0986-0.8654-0.88978-0.63358-0.26901-0.59234-0.26901-0.59234-0.0064-1.3116 0.6503-1.2872 0.48879-0.32481 0.48879-0.3248 1.0456-0.29044 0.82383-8.7e-4 0.82383-8.6e-4 0.73834 0.15834 0.73834 0.15835-0.09902 0.81711-0.09902 0.8171-0.06522 0.0774-1.8198-0.46621-0.88287 0.1766-0.6642 0.62398v0.69118l0.1392 0.26009 0.1392 0.26009 2.5396 1.0802 0.54508 0.52333 0.54508 0.52334 0.15625 0.58026 0.15625 0.58027-0.08696 0.63443-0.08696 0.63442-0.60359 0.97662-1.3437 0.78749-2.8942 0.0614-0.62708-0.14774zm28.403-0.0502-0.54814-0.20911-0.88808-0.63237-0.68628-1.4739-0.0014-3.6489-0.0014-3.6489h2.0043l0.04558 3.4322 0.04558 3.4321 0.26249 0.48105 0.26249 0.48105 0.9831 0.41076 0.40205-5.8e-4 0.40205-5.7e-4 0.92088-0.5615 0.18986-0.33289 0.18986-0.3328 0.07226-3.4683 0.07226-3.4683h2.0232v7.0811l-0.38612 1.0912-0.73408 0.87239-1.192 0.62198-2.8902 0.0834zm-42.589-4.7719v-4.8411h2.0232v9.6823h-2.0232zm3.8229 4.6592-0.0698-0.18189 0.03821-4.6231 0.03821-4.6231 2.4906-0.083 3.4973 6.875 0.0047-3.4321 0.0047-3.4322h2.0232v9.6935l-2.529-0.0836-3.4683-6.792-0.07748 6.8643h-1.8825zm19.299-3.8581v-4.0526h-2.7457v-1.5896h7.5146v1.5896h-2.5966l-0.07682 8.0204-2.0954 0.085zm5.7805-0.80115v-4.8411h2.0232v9.6823h-2.0232zm5.6359 0.80115v-4.0526h-2.7457v-1.5896h7.5146v1.5896h-2.5966l-0.07682 8.0204-2.0954 0.085zm17.486 0v-4.0526h-2.7457v-1.5896h7.5146v1.5896h-2.5966l-0.03841 4.0102-0.03842 4.0102-2.0954 0.085zm5.925-0.80115v-4.8411h5.7805v1.5896h-3.7573v2.3122h3.4683v1.5896h-3.4683v2.6012h3.7573v1.5896h-5.7805zm-57.949-12.577v-4.8457l3.396 0.0814 1.5414 3.107 1.5414 3.107 0.01211-3.1431 0.01211-3.1431h2.4567v9.6914l-3.3558-0.0814-3.0988-5.997-0.12066-0.1212 0.0832 6.1904h-2.4676zm10.405 2e-3v-4.8438l6.8643 0.0774 0.04302 0.9032 0.04302 0.90319h-4.2046v1.8786h3.9018v2.0232h-3.9018v2.0232h4.3353v1.8786h-7.0811zm9.7547 4.5186-0.07756-0.32515-1.8843-8.5262-0.07664-0.25289-0.07664-0.2529h2.7597l0.14574 0.6503 1.0425 6.214 0.05622 0.0588 0.5471-3.2086 0.54711-3.2086 0.07151-0.25289 0.07151-0.2529h3.2734l0.13426 0.36128 1.1217 6.2862h0.15826l1.1227-6.6475h2.5519l5.78e-4 0.36128-1.036 4.6605-1.036 4.6605h-3.4069l-0.08722-0.46966-0.08722-0.46967-1.1041-5.925-0.07918 0.21676-0.07918 0.21677-0.51693 3.107-0.51694 3.107 5.78e-4 0.10838 5.78e-4 0.10839h-3.4628l-0.07755-0.32515zm-21.027-37.501-1.72e-4 -20.195-0.09566-6.6117-0.09565-6.6117 65.583 0.0728 0.07302 53.541h-65.464zm18.064 3.2154v-8.1649h10.838v16.33h9.1042v-35.983h-9.1042v13.151h-10.838v-13.151h-9.1042v35.983h9.1042zm38.368-9.8268v-17.919h-9.1042l-0.03718 17.775-0.03718 17.775 0.13912 0.3654 9.0394-0.0764z" fill="#f0e251"/>
  <path d="m37.002 365.64-0.47699-0.11296-0.08277-0.0828-0.08278-0.0828 0.09133-0.238 0.09133-0.23799 0.50335 0.1948 0.36668 0.074 0.36668 0.0741 0.68549-0.55508-0.10135-0.16399-0.10135-0.16398-1.2161-0.32377-0.50579-0.45144v-0.92199l0.28462-0.25758 0.28462-0.25758 1.3087 0.0262 0.56802 0.304-0.17292 0.45062-0.61113-0.1638-0.57804-0.1606-0.56714 0.4161 0.36067 0.43457 0.93898 0.1762 0.64034 0.44851v0.86968l-0.29242 0.5464-1.0804 0.30006-0.14452-0.028zm-19.538-2.2419v-2.2399h0.57804v3.9018h1.7341v0.57804h-2.3122zm3.0347 0.50579v-1.7341h2.1889l-0.04808 0.2529-0.04808 0.25289-1.5147 0.0874v0.85196h1.3218l-0.04797 0.2529-0.04797 0.25289-1.2259 0.0888v0.85045h1.5896v0.57804h-2.1677zm2.6012 1.5968v-0.13734l0.49143-1.3439 0.49143-1.3439 0.10208-0.25289 0.10208-0.2529h0.69879l0.1557 0.39741 0.1557 0.3974 0.97686 2.6735h-0.68909l-0.15113-0.43353-0.15113-0.43353h-1.3307l-0.30226 0.86706h-0.54977zm1.8721-1.4884-0.0065-0.18064-0.18412-0.43182-0.18411-0.43182-0.34129 0.97903v0.24589h0.72256l-0.0065-0.18064zm1.8852-0.10838v-1.7341h1.3099l1.0127 0.42313 0.22117 0.52934 0.22117 0.52933-0.0994 0.58836-0.0994 0.58837-0.80975 0.80974h-1.7564zm1.7341 0.86707 0.28902-0.28903v-1.0652l-0.62843-0.66893h-0.81669v2.3122h0.86707zm1.7341-0.86707v-1.7341h2.1889l-0.04808 0.2529-0.04808 0.25289-1.5147 0.0874v0.85196h1.3218l-0.04797 0.2529-0.04797 0.25289-1.2259 0.0888v0.85045h1.5896v0.57804h-2.1677zm3.0347 0v-1.7341h1.4641l0.6313 0.33229 0.10617 0.15901 0.10617 0.159 0.0044 0.80862-0.75276 0.69763 0.89728 1.0886v0.22317h-0.66024l-0.23535-0.3974-0.23534-0.39741-0.74772-0.70068v1.4955h-0.57805v-1.7341zm1.4605-0.41697 0.33647-0.27246-0.38729-0.46666h-0.83168v1.0116h0.54603zm7.2101-0.0888v-2.2399h2.3122v0.57805h-1.7341v1.3006h1.4663l-0.04802 0.25289-0.04802 0.2529-0.68513 0.044-0.68513 0.0441v2.0073h-0.57804zm2.9753 1.7953-0.37412-0.44462v-1.7342l0.84484-0.84484h1.3451l0.84484 0.84484 0.0458 0.81704-0.02203 0.28902-0.02203 0.28903-0.14974 0.6423-0.62904 0.58604h-1.5094zm1.7972-0.38632 0.3136-0.3974-0.14056-1.2581-0.39342-0.37272-0.64549-0.1934-0.76248 0.76248 0.07272 0.64517 0.07272 0.64518 0.51251 0.56632h0.65678zm1.875-0.90319v-1.7341h1.4641l0.6313 0.33229 0.10617 0.15901 0.10617 0.159 0.0044 0.80862-0.75276 0.69763 0.89728 1.0886v0.22317h-0.66024l-0.23535-0.3974-0.23534-0.39741-0.74772-0.70068v1.4955h-0.57805v-1.7341zm1.4605-0.41697 0.33647-0.27246-0.38729-0.46666h-0.83168v1.0116h0.54603zm4.6089 0.2002v-1.9509h-1.1561v-0.57805h3.0559l-0.04797 0.2529-0.04797 0.25289-1.2259 0.0888v3.8852h-0.57804zm1.9637 1.5063-0.37412-0.44462v-1.7342l0.84484-0.84484h1.3451l0.84484 0.84484 0.0458 0.81704-0.02203 0.28902-0.02203 0.28903-0.14974 0.6423-0.62904 0.58604h-1.5094zm1.7972-0.38632 0.31361-0.3974-0.14056-1.2581-0.39342-0.37272-0.64549-0.1934-0.76248 0.76248 0.07272 0.64517 0.07272 0.64518 0.51251 0.56632h0.65678zm1.6355 0 0.08683-0.83094 0.09501-0.90319 0.09501-0.9032h0.77885l0.67982 2.1677h0.18024l0.63774-2.1677h0.82804l0.16958 1.3729 0.09701 1.0477 0.09701 1.0477h-0.57926l-0.09032-0.45159-0.09032-0.4516v-1.3223l-0.12663 0.13728-0.12663 0.13729-0.6428 1.9672-0.57931-0.0886-0.3722-1.1561-0.3722-1.1561-0.03753 0.21676-0.03753 0.21677-0.18488 1.9509h-0.59237zm4.8045 0.38632-0.37412-0.44462v-1.7342l0.84484-0.84484h1.3451l0.84484 0.84484 0.0458 0.81704-0.02203 0.28902-0.02203 0.28903-0.14974 0.6423-0.62904 0.58604h-1.5094zm1.7972-0.38632 0.31361-0.3974-0.14056-1.2581-0.39342-0.37272-0.64549-0.1934-0.76248 0.76248 0.07272 0.64517 0.07272 0.64518 0.51251 0.56632h0.65678zm1.875-0.90319v-1.7341h1.4641l0.6313 0.33229 0.10617 0.15901 0.10617 0.159 0.0044 0.80862-0.75276 0.69763 0.89728 1.0886v0.22317h-0.66024l-0.23535-0.3974-0.23535-0.39741-0.74772-0.70068v1.4955h-0.57802v-1.7341zm1.4605-0.41697 0.33647-0.27246-0.19365-0.23333-0.19365-0.23333h-0.83168v1.0116h0.54603zm1.8632 0.41697v-1.7341h1.4641l0.6313 0.33229 0.10617 0.15901 0.10617 0.159 0.0044 0.80862-0.75276 0.69763 0.89728 1.0886v0.22317h-0.66024l-0.23535-0.3974-0.23535-0.39741-0.74772-0.70068v1.4955h-0.57804v-1.7341zm1.4605-0.41697 0.33647-0.27246-0.19365-0.23333-0.19365-0.23333h-0.83168v1.0116h0.54603zm1.9483 1.7065-0.37412-0.44462v-1.7342l0.84484-0.84484h1.3451l0.84484 0.84484 0.0458 0.81704-0.02203 0.28902-0.02203 0.28903-0.14974 0.6423-0.62904 0.58604h-1.5094zm1.7972-0.38632 0.31361-0.3974-0.14056-1.2581-0.39342-0.37272-0.64549-0.1934-0.76248 0.76248 0.07272 0.64517 0.07272 0.64518 0.51251 0.56632h0.65678zm1.8271-0.68362-0.39251-1.5146-0.08426-0.21957-0.08426-0.21958h0.72883l0.51103 2.1677h0.18334l0.51103-2.1677h0.65216l0.15718 0.54192 0.15718 0.54192 0.3475 1.3006 0.28322-1.2005 0.28322-1.2005 0.62384 0.0888-0.04108 0.2245-0.78681 3.1715h-0.78114l-0.25552-1.0838-0.25552-1.0838h-0.09522l-0.25552 1.0838-0.25552 1.0838h-0.75868zm-46.566-5.4329-0.58704-0.13983 0.1249-1.8001 0.07378-0.0844 1.2644 0.50757 1.6398 0.01 0.40846-0.30332 0.40846-0.30331 0.04718-0.39817 0.04718-0.39816-0.63211-0.67286-1.1593-0.46729-1.1592-0.4673-0.9616-0.9616-0.16491-0.61243-0.16491-0.61244 0.1464-1.0915 0.55814-1.0817 0.95244-0.64728 1.0456-0.29043 0.82383-8.7e-4 0.82383-8.6e-4 0.73834 0.15834 0.73834 0.15835-0.09902 0.8171-0.09902 0.81711-0.06522 0.0774-1.8198-0.46621-0.88287 0.1766-0.6642 0.62398v0.69118l0.1392 0.26009 0.1392 0.26009 2.5396 1.0802 1.0902 1.0467 0.3125 1.1605-0.08696 0.63442-0.08696 0.63443-0.30179 0.48831-0.30179 0.48831-1.3437 0.78748-2.8942 0.0614-0.58704-0.13983zm28.363-0.0581-0.54814-0.20911-0.86117-0.61321-0.32188-0.602-0.32188-0.60201-0.04677-3.7934-0.04677-3.7934h2.0255l0.04558 3.4322 0.04558 3.4321 0.26249 0.48105 0.26249 0.48105 0.9831 0.41076 0.40205-5.8e-4 0.40205-5.7e-4 0.46265-0.2821 0.46265-0.28209 0.51975-0.9521 0.04788-3.3662 0.04788-3.3662 1.9275 0.085v7.0811l-0.38612 1.0912-0.73408 0.8724-1.192 0.62198-2.8902 0.0834-0.54814-0.20912zm-42.589-4.7721v-4.8411h2.0232v9.6823h-2.0232zm3.9018 0v-4.8411h2.4254l3.4273 6.7883 0.14451 4e-3 -0.04122-3.3961-0.04122-3.3962h2.0333v9.6823h-2.438l-3.5592-6.8643-0.07748 6.8643h-1.8734zm19.318 4.7466-0.10641-0.10641 0.02726-7.8194-1.3462-0.0722-1.3462-0.0723-0.04368-0.75868-0.04368-0.75869h7.5297v1.5896h-2.5966l-0.07682 8.0204-0.94545 0.0421-0.94545 0.042-0.10641-0.10641zm5.6823-4.7466v-4.8411h2.0232v9.6823h-2.0232zm5.734 4.7466-0.10641-0.10641 0.02726-7.8194-1.3462-0.0722-1.3462-0.0723-0.04368-0.75868-0.04368-0.75869h7.5297v1.5896h-2.5966l-0.07682 8.0204-0.94545 0.0421-0.94545 0.042-0.10641-0.10641zm17.486 0-0.10641-0.10641 0.02726-7.8194-1.3462-0.0722-1.3462-0.0723-0.04368-0.75868-0.04368-0.75869h7.5297v1.5896h-2.5966l-0.07682 8.0204-0.94545 0.0421-0.94545 0.042-0.10641-0.10641zm5.8269-4.7466v-4.8411h5.7805v1.5896h-3.7573v2.3122h3.4683v1.5896h-3.4683v2.6012h3.7573v1.5896h-5.7805zm-57.949-12.577v-4.8457l3.396 0.0814 1.5414 3.107 1.5414 3.107 0.01211-3.1431 0.01211-3.1431h2.4567v9.6914l-3.3511-0.0814-3.0796-6.1348-0.14452-8e-3 0.0832 6.2143h-2.4676zm10.501 4.7494-0.09634-0.0963v-9.4948l6.8643 0.0774 0.04302 0.90319 0.04302 0.9032h-4.2046v1.8786h3.9018v2.0232h-3.9018v2.0232h4.3353v1.8786h-6.8884zm9.5786-0.7346-0.17237-0.83094-1.7842-8.0204h2.681l0.0727 0.32515 0.07271 0.32515 1.0162 6.0427v0.29171l0.126-0.126 0.5873-3.3378 0.5873-3.3378v-0.183h3.3043l0.07415 0.25289 0.07415 0.2529 0.522 2.9625 0.522 2.9625 0.10259 0.26201 0.10259 0.26201 1.1488-6.9548h2.5311l5.78e-4 0.36128-2.0721 9.321h-3.3728l-1.2709-6.9171-0.11712 0.1172-1.1046 6.4387-0.0056 0.18063-0.0056 0.18064h-3.4478zm-20.947-24.892v-8.0926h8.8152v-8.8152h-8.8152l-1.74e-4 -7.6952-1.73e-4 -7.6952-0.09565-6.6117-0.09566-6.6117 65.583 0.0728 0.07636 8.8152h-18.14v35.839h9.1042l0.03678-13.584 0.03678-13.584 8.9584 0.0804v27.16h-8.9679l0.04021 4.4077 0.04022 4.4077-56.576-1.6e-4zm18.064-8.8874v-8.1649h10.838v16.33h9.1042v-35.983h-9.1042v13.151h-10.838v-13.151h-9.1042v35.983h9.1042z" fill="#9d9e9d"/>
  <path d="m17.464 363.4v-2.246h0.57804v4.0463h1.7582l-0.11954 0.36128-2.2167 0.0844zm3.0347 0.57196v-1.6619h2.0232v0.43354h-1.4451v0.86706h1.2915l-0.16636 0.43354h-1.1252v1.1561h1.5896v0.43353h-2.1677zm2.6012 1.5371v-0.12478l1.1273-3.002h0.79547l0.54901 1.4451 0.54901 1.4451 7e-3 0.18064 7e-3 0.18063h-0.55566l-0.33385-1.0116h-1.2743l-0.42266 1.0116h-0.44828zm1.784-1.9706-0.22158-0.6503h-0.09018l-0.44316 1.3006h0.97649zm1.9733 0.4509v-1.6792h1.7564l0.84484 0.84484v1.4628l-0.8241 0.92233-1.7771 0.1286zm1.6684 0.85627 0.35471-0.35471v-1.1692l-0.57805-0.57804h-1.0116v2.264l0.19268 0.1926h0.68752zm1.7998-0.87364v-1.6619h2.0232v0.43354h-1.4451v0.86706h1.2915l-0.16636 0.43354h-1.1252v1.1561h1.5896v0.43353h-2.1677zm3.0347 0.0152v-1.6467l0.56678-0.054 0.56678-0.0541 0.9009 0.23344 0.32412 0.71137-0.34238 0.75144-0.57108 0.1494v0.1414l0.81857 1.0532 0.10504 0.18064 0.10503 0.18063h-0.6773l-0.23681-0.3974-0.23681-0.39741-0.61154-0.6503h-0.27776v1.4451h-0.43353zm1.5135-0.46548 0.23354-0.23355-0.05325-0.16386-0.05325-0.16387-0.79103-0.38546-0.41598 0.1596v0.82796l0.19268 0.1926h0.65374zm1.7659 2.011-0.26114-0.0677 0.10592-0.48142 0.41637 0.1236 0.58624 0.059 0.58625 0.0589 0.20019-0.24121 0.20019-0.24121-0.1505-0.23859-0.1505-0.23858-1.2312-0.35645-0.201-0.16682-0.201-0.16681v-0.95981l0.64236-0.44992h1.1811l0.53293 0.38969-0.09496 0.15364-0.09496 0.15365-0.81485-0.30757-0.79229 0.1988 0.04551 0.31429 0.04551 0.3143 0.63566 0.18343 0.63566 0.18344 0.53508 0.48424v0.80129l-0.76154 0.59902-1.3339-0.0336zm5.3913-2.1281v-2.2505h2.3122v0.43353h-1.7341v1.4451h1.3006v0.43353h-1.2879l-0.04246 1.0462-0.04246 1.0462-0.50579 0.0966zm3.087 1.8875-0.39738-0.34181-0.11882-1.8661 0.6807-0.78377 1.0457-0.1664 0.50481 0.23954 0.50481 0.23955 0.16453 0.36112 0.16454 0.36111v1.4538l-0.42242 0.42242-0.42242 0.42241h-1.3067zm1.7459-0.41291 0.22496-0.32117v-1.1973l-0.59902-0.76154h-0.70158l-0.28902 0.28903-0.28902 0.28902v1.3808l0.22496 0.32117 0.22496 0.32118h0.9788zm1.8146-0.89199v-1.6467l0.56678-0.054 0.56678-0.0541 0.9009 0.23344 0.32412 0.71137-0.34238 0.75144-0.57108 0.1494v0.1414l0.81857 1.0532 0.10504 0.18064 0.10503 0.18063h-0.6773l-0.23681-0.3974-0.23681-0.39741-0.61154-0.6503h-0.27776v1.4451h-0.43353zm1.5135-0.46548 0.23354-0.23355-0.05325-0.16386-0.05325-0.16387-0.79103-0.38546-0.41598 0.1596v0.82796l0.19268 0.1926h0.65374zm4.524 0.13495-0.04027-1.9968-1.0838-0.0896v-0.41609h2.8902v0.43353h-1.1479l-0.08042 3.9705-0.49751 0.0954zm2.1074 1.6354-0.39738-0.34181-0.11882-1.8661 0.68069-0.78377 1.0457-0.1664 0.50481 0.23954 0.50481 0.23955 0.16453 0.36112 0.16454 0.36111v1.4538l-0.42242 0.42242-0.42242 0.42241h-1.3067zm1.7459-0.41291 0.22496-0.32117v-1.1973l-0.59902-0.76154h-0.70158l-0.28902 0.28903-0.28902 0.28902v1.3808l0.22496 0.32117 0.22496 0.32118h0.9788zm1.5735 0.0828 0.08902-0.70098 0.096-0.97546 0.096-0.97545h0.7797l0.37191 1.1922 0.37191 1.1922 0.07405-0.21677 0.07404-0.21676 0.31211-0.97546 0.31211-0.97545h0.81282l0.11512 1.3367 0.11512 1.3367 0.0086 0.28669 0.0086 0.2867-0.47962 0.093-0.19204-2.2561-0.03516-0.13752-0.03517-0.13752-0.84765 2.4407-0.47652 0.0898-0.42865-1.2722-0.42864-1.2723-0.10046 1.0116-0.10046 1.0116-0.0582 0.43022-0.54357 0.1046 0.08902-0.70098zm4.9177 0.33007-0.39738-0.34181-0.11882-1.8661 0.6807-0.78377 1.0457-0.1664 0.50481 0.23954 0.50481 0.23955 0.16453 0.36112 0.16453 0.36111v1.4538l-0.42242 0.42242-0.42242 0.42241h-1.3067zm1.7459-0.41291 0.22496-0.32117v-1.1973l-0.59902-0.76154h-0.70158l-0.28902 0.28903-0.28902 0.28902v1.3808l0.22496 0.32117 0.22496 0.32118h0.9788zm1.8146-0.89199v-1.6467l0.56678-0.054 0.56678-0.0541 0.9009 0.23344 0.16206 0.35569 0.16206 0.35568-0.17119 0.37572-0.17119 0.37572-0.57108 0.1494v0.1414l0.81857 1.0532 0.21007 0.36127h-0.6773l-0.23681-0.3974-0.23681-0.39741-0.61154-0.6503h-0.27776v1.4451h-0.43353zm1.5135-0.46548 0.23354-0.23355-0.05325-0.16386-0.05325-0.16387-0.79103-0.38546-0.41598 0.1596v0.82796l0.19268 0.1926h0.65374zm1.8103 0.46548v-1.6467l0.56678-0.054 0.56678-0.0541 0.9009 0.23344 0.32412 0.71137-0.17119 0.37572-0.17119 0.37572-0.57108 0.1494v0.1414l0.81857 1.0532 0.21007 0.36127h-0.6773l-0.23681-0.3974-0.23681-0.39741-0.61154-0.6503h-0.27776v1.4451h-0.43353zm1.5135-0.46548 0.23354-0.23355-0.05325-0.16386-0.05325-0.16387-0.79103-0.38546-0.41598 0.1596v0.82796l0.19268 0.1926h0.65374zm2.0071 1.7704-0.39738-0.34181-0.11882-1.8661 0.68069-0.78377 1.0457-0.1664 0.50481 0.23954 0.50481 0.23955 0.16453 0.36112 0.16454 0.36111v1.4538l-0.42242 0.42242-0.42242 0.42241h-1.3067zm1.7459-0.41291 0.22496-0.32117v-1.1973l-0.59902-0.76154h-0.70158l-0.28902 0.28903-0.28902 0.28902v1.3808l0.22496 0.32117 0.22496 0.32118h0.9788zm2.2057 0.6546-0.0697-0.11665-0.75494-2.7848v-0.32225h0.55545l0.56256 2.3844 0.16355-0.61417 0.16355-0.61418 0.30016-1.1561h0.66852l0.25079 0.97545 0.25079 0.97546 0.07599 0.21676 0.07599 0.21677 0.56803-2.3844h0.57842l-0.09781 0.44535-0.09781 0.44534-0.6422 2.3608h-0.68455l-0.31014-1.1516-0.31013-1.1516-0.56693 2.3032-0.60988 0.0888zm-45.984-6.7642-0.14451-0.0495-1.3729-0.185v-1.5549l0.25825-0.1596 1.2232 0.43157h1.5311l0.88924-0.74825v-0.85517l-0.7103-0.65829-2.0839-0.8176-1.0868-0.98188-0.14384-0.67899-0.14384-0.679 0.10816-0.57804 0.10816-0.57805 0.31309-0.57804 0.34039-0.31826 0.34039-0.31825 1.1521-0.49678 2.4567 0.0276 0.86432 0.25865-0.04299 0.56801-0.04298 0.56802-0.06793 0.23452-0.06793 0.23453-1.076-0.38411-1.2095-0.012-0.37768 0.1436-0.37768 0.14359-0.44229 1.0586 0.52906 0.70861 1.5171 0.74309 1.5171 0.7431 0.6503 0.98206v1.9377l-0.65718 0.97519-0.94301 0.63549-0.72439 0.15536-0.72439 0.15535-1.2141-0.0228-0.14451-0.0495zm28.035-0.0261-0.28902-0.0649-0.48855-0.15253-0.48855-0.15254-1.1167-1.0088-0.43519-1.4654v-6.7396h2.0232v6.5123l0.19926 0.47689 0.19926 0.47688 0.79656 0.62657h1.276l0.81374-0.4208 0.27238-0.54828 0.27238-0.54829 0.0459-3.2876 0.0459-3.2876h1.8591l-0.0028 7.1533-0.68628 1.4739-0.86507 0.61598-1.6858 0.4391-1.4566-0.0336-0.28902-0.0649zm-43.185-0.14241-0.09634-0.0963v-9.3451h2.0232v9.5378h-1.8305zm3.8055-4.6656v-4.7758h2.4575l3.3924 6.792h0.21963v-6.792l1.8064-1.4e-4 -0.0799 9.5379h-2.2828l-3.5622-6.9664-0.14452 6.8942-1.8064 0.086zm19.331 0.75179-0.03841-4.0102-1.3367-0.0415-1.3367-0.0416v-1.4343h7.3701v1.4451h-2.7457v8.0926h-1.8741zm5.7661 3.9138-0.09634-0.0963v-9.3451h2.0232v9.5378h-1.8305zm5.6503-3.9138-0.03841-4.0102-1.3367-0.0415-1.3367-0.0416v-1.4343h7.3701v1.4451h-2.7457v8.0926h-1.8741zm17.486 0-0.03841-4.0102-1.3367-0.0415-1.3367-0.0416v-1.4343h7.3701v1.4451h-2.7457v8.0926h-1.8741zm5.9588-0.75869v-4.7689h5.6359v1.4451h-3.7573v2.3122h3.4834l-0.04368 0.75869-0.04368 0.75868-3.396 0.0814v2.592h3.7573v1.5896h-5.6359zm-58.094-12.567v-4.7747h3.4054l1.5488 3.1207 1.5488 3.1207v-6.2414h2.3844l-0.06372 9.4655-3.1385 0.0812-1.6236-3.1838-1.6236-3.1838h-0.15026l0.04831 3.1431 0.04831 3.1431-2.3844 0.084zm10.549-6e-3v-4.7689l6.7198-5.8e-4 -0.04896 0.86733-0.04896 0.86734h-4.1784l0.08546 1.9509 3.9741 0.0804v1.7178l-3.9741 0.0804-0.04246 1.0477-0.04246 1.0477 4.4203-5.7e-4 -0.04846 0.93962-0.04846 0.93963h-6.7674v-4.7689zm8.7526 0.32947-0.99175-4.448-0.13546-0.6503h2.6119l0.08124 0.39741 0.08124 0.3974 0.43854 2.6735 0.43854 2.6735 0.08351 0.40774 0.0835 0.40774 0.04694-0.047 0.04694-0.0469 1.1792-6.7286v-0.1346h3.2924l0.15584 0.6503 1.0519 5.925 0.0813 0.21677 0.0813 0.21676 1.1966-6.9365 2.5173-0.0834-0.08279 0.403-0.08279 0.40299-0.96637 4.3354-0.96638 4.3353-3.3277 0.081-0.64422-3.5486-0.64422-3.5486-0.19824 0.5132-0.45166 2.6735-0.45166 2.6735-0.10401 0.57804-0.10401 0.57805-3.3253 0.0808zm-20.073-13.287-0.09634-0.0963v-8.6225h8.8152v8.8152h-8.6225zm28.727-0.0861-0.06999-0.1824 0.0768-8.3781 9.1765-0.0764v8.8192h-9.1133zm27.746-18.497-0.06999-0.1824 0.0768-8.3781 4.3715-0.0383 4.3715-0.0382v8.8194h-8.6798zm-18.529-12.788 0.03822-4.4437 9.1765-0.0764v8.9638h-9.2529zm-38.185-17.739v-4.4117l9.1765 0.0764v8.6707l-4.5882 0.0382-4.5882 0.0381zm29.047 0.0722v-4.3353h9.1042v8.6707h-9.1042z" fill="#0ea2d4"/>
  <path d="m17.464 363.38v-2.2505l0.50579 0.097 0.04021 1.9852 0.04021 1.9852h1.7169l-0.08318 0.21677-0.08318 0.21676h-2.1367zm3.0347 0.58864v-1.6619h2.0232v0.43354h-1.4451v0.86706h1.1561v0.43354h-1.1079l-0.13568 0.1356 0.05956 0.5102 0.05956 0.51021h1.558v0.43353h-2.1677zm2.6012 1.5371v-0.12478l1.1273-3.002h0.786l1.118 3.0347 0.0034 0.21676h-0.55563l-0.33385-1.0116h-1.2743l-0.42266 1.0116h-0.44829zm1.784-1.9706-0.22158-0.6503h-0.1245l-0.24328 0.6503-0.20258 0.6503h1.0135zm1.9733 0.4509v-1.6792h1.7564l0.84484 0.84484v1.4628l-0.8241 0.92233-1.7771 0.1286zm1.6684 0.85627 0.35471-0.35471v-1.1692l-0.57805-0.57804h-1.0116v2.264l0.19268 0.1926h0.68752zm1.7998-0.87364v-1.6619h2.0232v0.43354h-1.4451v0.86706h1.1561v0.43354h-1.1079l-0.13568 0.1356 0.05956 0.5102 0.05956 0.51021h1.558v0.43353h-2.1677zm3.0347 0.0152v-1.6467l0.56678-0.054 0.56678-0.0541 0.90102 0.23348 0.13522 0.35566 0.13522 0.35567-0.14267 0.37526-0.14268 0.37527-0.57457 0.1502v0.1444l1.0362 1.4116h-0.68486l-0.23681-0.3974-0.23681-0.39741-0.61154-0.6503h-0.27776v1.4451h-0.43353zm1.5135-0.46548 0.23354-0.23355-0.05325-0.16386-0.05325-0.16387-0.79103-0.38546-0.41598 0.1596v1.0206h0.84642zm1.7659 2.011-0.26114-0.0677 0.10592-0.48142 0.41637 0.1236 0.58624 0.059 0.58625 0.0589 0.20019-0.24121 0.20019-0.24121-0.1505-0.23859-0.1505-0.23858-1.2312-0.35645-0.201-0.16682-0.201-0.16681v-0.95981l0.64236-0.44992h1.1811l0.53293 0.38969-0.09496 0.15364-0.09496 0.15365-0.81485-0.30757-0.79229 0.1988 0.04551 0.31429 0.04551 0.3143 0.63566 0.18343 0.63566 0.18344 0.53508 0.48424v0.80129l-0.76154 0.59902-1.3339-0.0336zm5.3913-2.1281v-2.2505h2.3122v0.43353h-1.686l-0.06206 0.0621-0.06207 0.0621 0.05253 0.6605 0.05253 0.66049h1.2715v0.4177l-1.3404 0.088-0.03246 2.0184-0.50579 0.0982zm3.087 1.8875-0.39738-0.34181-0.11882-1.8661 0.72793-0.84626h1.4938l0.4376 0.48975 0.4376 0.48976-0.06284 0.86877-0.06284 0.86878-0.39467 0.33948-0.39467 0.33947h-1.2684zm1.7459-0.41291 0.22496-0.32117v-1.1973l-0.59902-0.76154h-0.63727l-0.32118 0.22497-0.32118 0.22496v1.5089l0.22496 0.32117 0.22496 0.32118h0.9788zm1.8146-0.89199v-1.6467l0.56678-0.054 0.56678-0.0541 0.90102 0.23348 0.13522 0.35566 0.13523 0.35567-0.14268 0.37526-0.14268 0.37527-0.57456 0.1502v0.1444l1.0362 1.4116h-0.68486l-0.23681-0.3974-0.23681-0.39741-0.61154-0.6503h-0.27776v1.4451h-0.43353zm1.5135-0.46548 0.23354-0.23355-0.05325-0.16386-0.05325-0.16387-0.79103-0.38546-0.41598 0.1596v1.0206h0.84642zm4.524 0.13495-0.04027-1.9968-1.0838-0.0896v-0.41609h2.8902v0.41692l-1.1817 0.0888-0.02331 1.9488-0.0233 1.9487-0.49751 0.0962zm2.1074 1.6354-0.39738-0.34181-0.11882-1.8661 0.72792-0.84626h1.4938l0.43759 0.48975 0.4376 0.48976-0.06284 0.86877-0.06284 0.86878-0.39467 0.33948-0.39467 0.33947h-1.2684zm1.7459-0.41291 0.22496-0.32117v-1.1973l-0.59902-0.76154h-0.63727l-0.32118 0.22497-0.32118 0.22496v1.5089l0.22496 0.32117 0.22496 0.32118h0.9788zm1.5735 0.0828 0.08902-0.70098 0.096-0.97546 0.096-0.97545h0.787l0.66228 2.3259 0.18816-0.2305 0.65151-2.0954h0.80911l0.13098 1.6073 0.13098 1.6073-0.37764 0.145-0.06014-0.0601-0.06014-0.0602-0.19834-2.3782-0.1747 0.1708-0.37342 1.1098-0.37342 1.1098-0.45814 0.089-0.40135-1.2324-0.40135-1.2324-0.09806 0.098-0.10322 1.1371-0.10322 1.1372-0.54689 0.1048zm4.9177 0.33007-0.39738-0.34181-0.11882-1.8661 0.72792-0.84626h1.4938l0.4376 0.48975 0.4376 0.48976-0.06284 0.86877-0.06284 0.86878-0.39467 0.33948-0.39467 0.33947h-1.2684zm1.7459-0.41291 0.22496-0.32117v-1.1973l-0.59902-0.76154h-0.63727l-0.32118 0.22497-0.32118 0.22496v1.5089l0.22496 0.32117 0.22496 0.32118h0.9788zm1.8146-0.89199v-1.6467l0.56678-0.054 0.56678-0.0541 0.90102 0.23348 0.13522 0.35566 0.13522 0.35567-0.14268 0.37526-0.14267 0.37527-0.57457 0.1502v0.1444l1.0362 1.4116h-0.68486l-0.23681-0.3974-0.23681-0.39741-0.61154-0.6503h-0.27776v1.4451h-0.43353zm1.5135-0.46548 0.23354-0.23355-0.05325-0.16386-0.05325-0.16387-0.79103-0.38546-0.41598 0.1596v1.0206h0.84642zm1.8103 0.46548v-1.6467l0.56678-0.054 0.56678-0.0541 0.90102 0.23348 0.13522 0.35566 0.13522 0.35567-0.14268 0.37526-0.14267 0.37527-0.57457 0.1502v0.1444l1.0362 1.4116h-0.68486l-0.23681-0.3974-0.23681-0.39741-0.61154-0.6503h-0.27776v1.4451h-0.43353zm1.5135-0.46548 0.23354-0.23355-0.05325-0.16386-0.05325-0.16387-0.79103-0.38546-0.41598 0.1596v1.0206h0.84642zm2.0071 1.7704-0.39738-0.34181-0.11882-1.8661 0.72792-0.84626h1.4938l0.43759 0.48975 0.4376 0.48976-0.06284 0.86877-0.06284 0.86878-0.39467 0.33948-0.39467 0.33947h-1.2684zm1.7459-0.41291 0.22496-0.32117v-1.1973l-0.59902-0.76154h-0.63727l-0.32118 0.22497-0.32118 0.22496v1.5089l0.22496 0.32117 0.22496 0.32118h0.9788zm2.2006 0.64633-0.06459-0.10838-0.75494-2.7848v-0.32225h0.52274l0.58601 2.3844 0.16818-0.61417 0.16818-0.61418 0.30016-1.1561h0.6557l0.52964 2.0954 0.09059 0.10355 0.09059 0.10356 0.51752-2.3025h0.56702l-0.08198 0.32515-0.08199 0.32515-0.32729 1.3006-0.32729 1.3006h-0.68637l-0.31509-1.1561-0.31509-1.1561-0.15382 0.57804-0.15382 0.57805-0.31962 1.2283h-0.54985zm-45.979-6.7465-0.14451-0.059-1.3729-0.185v-1.5549l0.25825-0.1596 1.2232 0.43157h1.5311l0.88924-0.74825v-0.85517l-0.7103-0.65829-2.0839-0.8176-1.0868-0.98188-0.14384-0.67899-0.14384-0.679 0.10816-0.57804 0.10816-0.57805 0.16656-0.30956 0.16656-0.30956 0.86624-0.7289 0.54559-0.18038 0.54559-0.18037 1.7341-0.0232 0.68643 0.11617 0.68643 0.11618-4e-3 1.0661-0.16338 0.60864-1.2055-0.41867-1.5345 0.1242-0.54265 0.55284-0.09026 0.37042-0.09026 0.37041 0.54518 0.67327 3.0071 1.4761 0.55216 0.77328 0.06968 0.72521 0.06968 0.7252-0.09699 0.517-0.09699 0.51699-0.85649 0.9755-1.2247 0.49064-2.0232 0.1134-0.14451-0.059zm28.035-0.0356-0.28902-0.0649-0.48855-0.15253-0.48855-0.15254-1.1167-1.0088-0.43519-1.4654v-6.7396h2.0232v6.5123l0.19926 0.47689 0.19926 0.47688 0.79656 0.62657h1.276l0.81374-0.4208 0.27238-0.54828 0.27238-0.54829 0.0459-3.2876 0.0459-3.2876h1.8769l-0.09002 7.4423-0.32188 0.60201-0.32188 0.602-0.83816 0.59682-1.6858 0.4391-1.4566-0.0336zm-43.185-0.14241-0.09634-0.0963v-9.3451h2.0232v9.5378h-1.8305zm3.8055-4.6656v-4.7758h2.4077l3.4451 6.7864 0.21677 6e-3v-6.792h1.7341v9.5378h-2.2905l-1.7738-3.4683-1.7738-3.4683-0.15916-1.2e-4v6.8644l-1.8064 0.086v-4.7758zm19.331 0.75179-0.03841-4.0102-1.3367-0.0415-1.3367-0.0416v-1.4343h7.3701v1.4451h-2.7457v8.0926h-1.8741zm5.7661 3.9138-0.09634-0.0963v-9.3451h2.0232v9.5378h-1.8305zm5.6503-3.9138-0.03841-4.0102-1.3367-0.0415-1.3367-0.0416v-1.4343h7.3701v1.4451h-2.7457v8.0926h-1.8741zm17.486 0-0.03841-4.0102-1.3367-0.0415-1.3367-0.0416v-1.4343h7.3701v1.4451h-2.7457v8.0926h-1.8741zm5.9588-0.75869v-4.7689h5.6359v1.4451h-3.7573v2.3122h3.4834l-0.04368 0.75869-0.04368 0.75868-3.396 0.0814v2.592h3.7573v1.5896h-5.6359zm-58.094-12.567v-4.7747h3.3225l1.5825 3.1431 1.5825 3.1431 0.0077-3.1431 0.0077-3.1431h2.3122v9.5378h-3.1346l-3.2425-6.3585h-0.16642l0.05639 3.1431 0.05639 3.1431-2.3844 0.084zm10.549-6e-3v-4.7689h6.6475v1.7341h-4.204l0.08546 1.9509 3.9741 0.0804v1.7178l-3.9741 0.0804-0.08492 2.0954h4.348v1.8786h-6.792zm8.7517 0.32515-0.99079-4.4437-0.13546-0.6503h2.6349v0.1687l1.0133 6.1175 0.15682 0.6844 0.10732-0.1074 1.1792-6.7286v-0.1346h3.2902l0.29021 1.5535 0.29021 1.5535 0.34076 1.9146 0.34076 1.9146 0.07274 1.2e-4 0.07274 1.3e-4 0.57967-3.4322 0.57967-3.4321 2.5479-0.0838-0.16034 0.51738-0.94916 4.2631-0.94916 4.2631-0.07582 0.2529-0.07582 0.25289h-3.2455l-1.2855-7.0811h-0.21842v0.56631l-0.50522 2.9322-0.50522 2.9322-0.15116 0.6503h-3.2581zm-20.072-13.283-0.09634-0.0963v-8.6225h8.8152v8.8152h-8.6225zm28.727-0.0861-0.06999-0.1824 0.0768-8.3781 9.1765-0.0764v8.8192h-9.1133zm27.746-18.497-0.06999-0.1824 0.0768-8.3781 4.3715-0.0383 4.3715-0.0382v8.8194h-8.6798zm-18.529-12.788 0.03822-4.4437 9.1765-0.0764v8.9638h-9.2529zm-9.1383-17.667v-4.3353h9.1042v8.6707h-9.1042z" fill="#c8384b"/>
  <path d="m17.464 363.38v-2.2505l0.50579 0.097 0.04021 1.9852 0.04021 1.9852h1.7169l-0.08318 0.21677-0.08318 0.21676h-2.1367zm3.0347 0.58864v-1.6619h2.0232v0.43354h-1.4451v0.86706h1.1561v0.43354h-1.1079l-0.13568 0.1356 0.05956 0.5102 0.05956 0.51021h1.558v0.43353h-2.1677zm2.6012 1.535v-0.12686l0.39378-0.97462 0.79376-2.1116 0.72772 0.0884 1.116 3.0347 0.0034 0.21676h-0.51998l-0.1829-0.50579-0.1829-0.50579h-1.278l-0.42266 1.0116h-0.44829zm1.9478-1.5711-0.1063-0.2529-0.07093-0.32729-0.07093-0.32728-0.25505-0.1576-0.12494 0.33384-0.12494 0.33385-0.20258 0.6503h1.062zm1.8095 0.0535v-1.6792h1.7564l0.84484 0.84484v1.4628l-0.8241 0.92233-1.7771 0.1286zm1.6424 0.91147 0.38077-0.29951v-1.2796l-0.57805-0.57804h-1.0116v2.264l0.19268 0.1926h0.63541zm1.8259-0.92884v-1.6619h2.0232v0.43354h-1.4451v0.86706h1.1561v0.43354h-1.1079l-0.13568 0.1356 0.05956 0.5102 0.05956 0.51021h1.558v0.43353h-2.1677zm3.0347 0.0152v-1.6467l0.56678-0.054 0.56678-0.0541 0.90102 0.23348 0.13522 0.35566 0.13522 0.35567-0.14267 0.37526-0.14268 0.37527-0.57457 0.1502v0.1444l1.0362 1.4116h-0.56836l-0.4-0.54191-0.4-0.54192-0.44564-0.36128h-0.23378v1.4451h-0.43353zm1.5132-0.42781 0.26787-0.19587-0.09203-0.23984-0.09203-0.23983-0.7798-0.29648-0.38369 0.1472v1.0206h0.81183zm1.7662 1.9733-0.26114-0.0677 0.10592-0.48142 0.41637 0.1236 0.58624 0.059 0.58625 0.0589 0.20019-0.24121 0.20019-0.24121-0.1505-0.23859-0.1505-0.23858-1.2312-0.35645-0.201-0.16682-0.201-0.16681v-0.95981l0.64236-0.44992h1.1811l0.53293 0.38969-0.09496 0.15364-0.09496 0.15365-0.81485-0.30757-0.79229 0.1988 0.04551 0.31429 0.04551 0.3143 0.63566 0.18343 0.63566 0.18344 0.53508 0.48424v0.80129l-0.76154 0.59902-1.3339-0.0336zm5.3913-2.1281v-2.2505h2.3122v0.43353h-1.686l-0.06206 0.0621-0.06207 0.0621 0.05253 0.6605 0.05253 0.66049h1.2715v0.4177l-1.3404 0.088-0.03246 2.0184-0.50579 0.0982zm3.2876 2.0732-0.2529-0.1473-0.43353-0.83835 0.001156-1.2427 0.27797-0.45588 0.27797-0.45587 0.88809-0.195 0.85926 0.1888 0.76088 0.90426-0.12436 1.7193-0.39467 0.33948-0.39467 0.33947-1.2122-8e-3 -0.2529-0.1473zm1.5453-0.59863 0.22496-0.32117v-1.0782l-0.33857-0.74308-0.72524-0.182-0.37129 0.20761-0.37129 0.2076-0.04413 0.76708-0.04414 0.76709 0.22811 0.34813 0.22811 0.34814h0.98853zm1.8146-0.89199v-1.6467l0.56678-0.054 0.56678-0.0541 0.90102 0.23348 0.13522 0.35566 0.13523 0.35567-0.14268 0.37526-0.14268 0.37527-0.57456 0.1502v0.1444l1.0362 1.4116h-0.56836l-0.4-0.54191-0.4-0.54192-0.44564-0.36128h-0.23378v1.4451h-0.43353zm1.5132-0.42781 0.26787-0.19587-0.09203-0.23984-0.09203-0.23983-0.7798-0.29648-0.38369 0.1472v1.0206h0.81183zm4.5243 0.0973-0.04027-1.9968-1.0838-0.0896v-0.41609h2.8902v0.41692l-1.1817 0.0888-0.02331 1.9488-0.0233 1.9487-0.49751 0.0962zm2.308 1.8212-0.2529-0.1473-0.43353-0.83835 0.001156-1.2427 0.27797-0.45588 0.27797-0.45587 0.88809-0.195 0.85926 0.1888 0.76088 0.90426-0.12436 1.7193-0.39467 0.33948-0.39467 0.33947-1.2122-8e-3 -0.2529-0.1473zm1.5453-0.59863 0.22496-0.32117v-1.0782l-0.16929-0.37154-0.16929-0.37154-0.72524-0.182-0.37129 0.20761-0.37129 0.2076-0.04414 0.76708-0.04414 0.76709 0.22811 0.34813 0.22811 0.34814h0.98853zm1.5666 0.36885 0.08303-0.41515 0.10235-1.2614 0.10235-1.2614h0.78716l0.66228 2.3259 0.20745-0.2305 0.31194-1.0477 0.31194-1.0477h0.83094l0.10334 1.5162 0.10334 1.5162 0.0087 0.10955 0.0087 0.10956-0.44985 0.0866-0.20755-2.4916-0.18912 0.1852-0.37342 1.1098-0.37342 1.1098-0.41895 0.0814-0.81046-2.4886-0.12948 0.1294-0.10322 1.1371-0.10322 1.1372-0.54777 0.105 0.08303-0.41514zm5.1252 0.22978-0.2529-0.1473-0.43353-0.83835 0.001156-1.2427 0.27797-0.45588 0.27797-0.45587 0.88809-0.195 0.85926 0.1888 0.76088 0.90426-0.12436 1.7193-0.39467 0.33948-0.39467 0.33947-1.2122-8e-3 -0.2529-0.1473zm1.5453-0.59863 0.22496-0.32117v-1.0782l-0.16929-0.37154-0.16929-0.37154-0.72524-0.182-0.37129 0.20761-0.37129 0.2076-0.04414 0.76708-0.04414 0.76709 0.22811 0.34813 0.22811 0.34814h0.98853zm1.8146-0.89199v-1.6467l0.56678-0.054 0.56678-0.0541 0.90102 0.23348 0.13522 0.35566 0.13522 0.35567-0.14268 0.37526-0.14267 0.37527-0.57457 0.1502v0.1444l1.0362 1.4116h-0.56836l-0.4-0.54191-0.4-0.54192-0.44564-0.36128h-0.23378v1.4451h-0.43353zm1.5132-0.42781 0.26787-0.19587-0.09203-0.23984-0.09203-0.23983-0.77981-0.29648-0.38369 0.1472v1.0206h0.81183zm1.8105 0.42781v-1.6467l0.56678-0.054 0.56678-0.0541 0.90102 0.23348 0.13522 0.35566 0.13522 0.35567-0.14268 0.37526-0.14267 0.37527-0.57457 0.1502v0.1444l1.0362 1.4116h-0.56836l-0.4-0.54191-0.4-0.54192-0.44564-0.36128h-0.23378v1.4451h-0.43353zm1.5132-0.42781 0.26787-0.19587-0.09203-0.23984-0.09203-0.23983-0.7798-0.29648-0.38369 0.1472v1.0206h0.81183zm2.2079 1.9184-0.2529-0.1473-0.43353-0.83835 0.001156-1.2427 0.27797-0.45588 0.27797-0.45587 0.88809-0.195 0.85926 0.1888 0.76088 0.90426-0.12436 1.7193-0.39467 0.33948-0.39467 0.33947-1.2122-8e-3 -0.2529-0.1473zm1.5453-0.59863 0.22496-0.32117v-1.0782l-0.16929-0.37154-0.16929-0.37154-0.72524-0.182-0.37129 0.20761-0.37129 0.2076-0.04414 0.76708-0.04414 0.76709 0.22811 0.34813 0.22811 0.34814h0.98853zm2.1799 0.57408-0.05917-0.18064-0.73965-2.7848v-0.1778h0.53077l0.26502 1.1604 0.26502 1.1604 0.10143-0.11266 0.10143-0.11267 0.2508-1.0477 0.2508-1.0477h0.63571l0.52964 2.0954 0.0997 0.11267 0.0997 0.11266 0.26502-1.1604 0.26502-1.1604h0.53628l-0.08198 0.32515-0.08199 0.32515-0.32665 1.3006-0.32665 1.3006-0.60796 0.089-0.47364-1.6787-0.11754-0.36128-0.11754-0.36127-0.1544 0.57804-0.1544 0.57805-0.31962 1.2283h-0.57598zm-45.959-6.6742-0.14451-0.059-1.4068-0.19 0.1299-1.5665 0.14794-0.148 1.2375 0.43662h1.5822l1.0044-1.0044-0.19116-0.65746-0.7365-0.61988-1.9996-0.78453-0.43106-0.36271-0.43106-0.36272-0.42315-0.81829v-1.6133l0.39424-0.94354 0.89902-0.75648 0.54559-0.18038 0.54559-0.18037 1.7341-0.0232 0.68643 0.11617 0.68643 0.11618-4e-3 1.0661-0.16338 0.60864-1.2055-0.41867-1.5345 0.1242-0.54265 0.55284-0.09026 0.37042-0.09026 0.37041 0.54518 0.67327 3.0071 1.4761 0.55216 0.77328 0.06968 0.72521 0.06968 0.7252-0.09699 0.517-0.09699 0.51699-0.85649 0.9755-1.2247 0.49064-2.0232 0.1134-0.14451-0.059zm27.778-0.0949-0.54661-0.12871-0.78542-0.40864-0.63651-0.6817-0.51021-1.1522-0.10752-7.1533h2.049v6.5123l0.19926 0.47689 0.19926 0.47688 0.79656 0.62657h1.248l0.74326-0.33865 0.6432-1.0342 0.09148-6.7198h1.8772l-0.09002 7.4423-0.32188 0.60201-0.32188 0.602-0.83816 0.59682-1.6858 0.4391-1.4566-0.029zm-42.879-4.7557v-4.7689h1.8786v9.5378h-1.8786zm3.7573 7e-3v-4.7758h2.4077l3.4451 6.7864 0.21677 6e-3v-6.792h1.7341v9.5378h-2.2546l-3.5476-6.9366-0.19506-1.2e-4v6.8644l-1.8064 0.086v-4.7758zm19.365 0.71567v-4.0463h-2.7457v-1.4451h7.3701v1.4451h-2.7457v8.0926h-1.8786zm5.7805-0.72256v-4.7689h1.8786v9.5378h-1.8786zm5.6359 0.72256v-4.0463h-2.7457v-1.4451h7.3701v1.4451h-2.7457v8.0926h-1.8786zm17.486 0v-4.0463h-2.7457v-1.4451h7.3701v1.4451h-2.7457v8.0926h-1.8786zm5.925-0.72256v-4.7689h5.6359v1.4451h-3.7573v2.3122h3.4834l-0.04368 0.75869-0.04368 0.75868-3.396 0.0814v2.592h3.7573v1.5896h-5.6359zm-57.949-12.567v-4.775h3.1801l3.0932 6.1944 0.12256-0.0757 0.12256-0.0758-0.10172-3.0214-0.10172-3.0214h2.3557v9.5378l-3.107-6e-3 -3.1793-6.2311-0.25847-0.1638 0.05698 3.1645 0.05698 3.1646-2.2399 0.0844zm10.405-6e-3v-4.7689h6.6475v1.7341h-4.204l0.08546 1.9509 3.9741 0.0804v1.7178l-3.9741 0.0804-0.08492 2.0954h4.348v1.8786h-6.792zm9.7774 4.6605-0.06648-0.10838-1.9264-8.8152-0.07241-0.25289-0.07241-0.2529h2.6207v0.1687l1.0133 6.1175 0.15682 0.6844 0.13178-0.1318 1.1548-6.5685v-0.27039h3.2902l0.29021 1.5535 0.29021 1.5535 0.34076 1.9146 0.34076 1.9146 0.10838 1.2e-4 0.10838 1.3e-4v-0.30819l1.0247-6.1226 0.07542-0.25289 0.07542-0.2529h2.4567l-0.07834 0.2529-0.07833 0.25289-0.94916 4.2631-0.94916 4.2631-0.07729 0.25753-0.07729 0.25752-3.2167-0.0816-0.19714-1.0116-0.54614-2.9986-0.54614-2.9986h-0.24038v0.56631l-0.50522 2.9322-0.50522 2.9322-0.15116 0.6503h-3.1567zm16.847-48.989 0.03822-4.4437 9.1765-0.0764v8.9638h-9.2529zm-9.1383-17.667v-4.3353h9.1042v8.6707h-9.1042z" fill="#7e2e7a"/>
  <path d="m17.464 363.39v-2.2399h0.42538l0.08042 3.9741 1.6619 0.0866v0.41911h-2.1677zm3.0347 0.58437v-1.6682h2.0232v0.43354h-1.5896v0.86706h1.3006v0.41692l-1.2283 0.0888v1.0116l1.681 0.0872-0.05723 0.17315-0.05723 0.17314-2.0723 0.085zm2.6012 1.5287v-0.12686l0.39378-0.97462 0.39379-1.0477 0.39379-1.0477h0.66637l0.10208 0.2529 0.10208 0.25289 0.98286 2.6878v0.1302h-0.51998l-0.36579-1.0116h-1.2966l-0.42266 1.0116h-0.42966zm1.9478-1.5711-0.1063-0.2529-0.07093-0.32729-0.07093-0.32728-0.25505-0.1576-0.12494 0.33384-0.12494 0.33385-0.20258 0.6503h1.062zm1.8095 0.0535v-1.6792h1.718l0.81093 0.69753v1.7526l-0.78201 0.78201-1.7469 0.1264zm1.6424 0.91147 0.38077-0.29951v-1.2796l-0.57805-0.57804h-1.0116v2.264l0.19268 0.1926h0.63541zm1.8259-0.92251v-1.6682h2.0232v0.43354h-1.5896v0.86706h1.3006v0.41692l-1.2283 0.0888v1.0116l1.681 0.0872-0.05723 0.17315-0.05723 0.17314-2.0723 0.085zm3.0347 9e-3v-1.6467l1.1727-0.1118 0.92269 0.29824v1.2691l-0.57805 0.32052-0.05354 0.0294-0.05354 0.0295 0.90189 1.2264v0.23208h-0.39923l-0.79999-1.0838-0.22282-0.18063-0.22282-0.18064h-0.23378v1.4451h-0.43353zm1.5132-0.42782 0.26787-0.19587-0.18406-0.47966-0.3899-0.14824-0.3899-0.14825-0.38369 0.1472v1.0206h0.81183zm1.7662 1.9733-0.26114-0.0677 0.10592-0.48142 0.41637 0.1236 0.58624 0.0589 0.58625 0.059 0.40037-0.48243-0.1505-0.23858-0.1505-0.23859-0.61558-0.17822-0.61558-0.17823-0.201-0.16681-0.201-0.16682v-0.9598l0.64236-0.44992h1.1108l0.27414 0.14671 0.27414 0.14672-0.08132 0.21191-0.08132 0.21192-0.26508-0.14186-0.26508-0.14187h-0.85068l-0.1799 0.21677-0.1799 0.21676 0.16658 0.20072 0.16658 0.20071 1.2755 0.32117 0.44989 0.64232v0.52687l-0.70942 0.70942-1.386-0.0336zm5.3913-2.1448v-2.246l2.2399 0.0844-0.06676 0.28902-0.83369 0.0722-0.83369 0.0723-0.0881 1.3729h1.461v0.4177l-1.3729 0.088-0.04246 1.0477-0.04246 1.0477h-0.42087zm3.2876 2.0899-0.2529-0.1473-0.43353-0.83835 0.001156-1.2427 0.27797-0.45588 0.27797-0.45587 0.88809-0.195 0.83077 0.1824 0.32793 0.34906 0.32793 0.34907 0.13516 1.4067-0.4687 0.90636-0.27803 0.1488-0.27803 0.14879-1.1028-8e-3 -0.2529-0.1473zm1.5453-0.59863 0.22496-0.32117v-1.1108l-0.33229-0.6313-0.31801-0.21234-0.6998-4e-3 -0.52855 0.47833v1.4805l0.22496 0.32118 0.22496 0.32117h0.9788l0.22496-0.32117zm1.8146-0.89199v-1.6467l1.1727-0.1118 0.46134 0.14912 0.46134 0.14913v1.2691l-0.57805 0.32052-0.05354 0.0295-0.05354 0.0294 0.90189 1.2264v0.23208h-0.39923l-0.4-0.54191-0.4-0.54192-0.44564-0.36128h-0.23378v1.4451h-0.43353zm1.5132-0.42781 0.26787-0.19587-0.09203-0.23984-0.09203-0.23983-0.7798-0.29648-0.38369 0.1472v1.0206h0.81183zm4.6258 1.8939-0.06593-0.18064-0.03791-1.8064-0.03792-1.8064-1.0838-0.0896v-0.41609h2.8902v0.41692l-1.2283 0.0888-0.08042 3.9741h-0.28994zm2.2065 0.0246-0.2529-0.1473-0.43353-0.83835 0.001156-1.2427 0.27797-0.45588 0.27797-0.45587 0.88809-0.195 0.83077 0.1824 0.32793 0.34906 0.32793 0.34907 0.13516 1.4067-0.23435 0.45318-0.23435 0.45318-0.27803 0.1488-0.27803 0.14879-1.1028-8e-3 -0.2529-0.1473zm1.5453-0.59863 0.22496-0.32117v-1.1108l-0.33229-0.6313-0.31801-0.21234-0.6998-4e-3 -0.52855 0.47833v1.4805l0.22496 0.32118 0.22496 0.32117h0.9788l0.22496-0.32117zm1.5695 0.35421 0.0801-0.40051 0.10297-1.269 0.10296-1.269 0.73119 0.0874 0.76476 2.2976 0.15704-0.27442 0.31326-1.0477 0.31327-1.0477h0.68332l0.07454 0.19425 0.07454 0.19424 0.10405 1.4676 0.10405 1.4676h-0.43658l-0.10318-1.2386-0.10317-1.2386-0.18912 0.1852-0.37342 1.1098-0.37342 1.1098-0.41895 0.0814-0.8159-2.5053-0.25381 0.40078-0.0042 0.72256-0.0042 0.72255-0.17428 0.6503h-0.43595l0.0801-0.4005zm5.1223 0.24442-0.2529-0.1473-0.43353-0.83835 0.001156-1.2427 0.27797-0.45588 0.27797-0.45587 0.88809-0.195 0.83077 0.1824 0.32793 0.34906 0.32793 0.34907 0.13516 1.4067-0.23435 0.45318-0.23435 0.45318-0.27803 0.1488-0.27803 0.14879-1.1028-8e-3 -0.2529-0.1473zm1.5453-0.59863 0.22496-0.32117v-1.1108l-0.33229-0.6313-0.31801-0.21234-0.6998-4e-3 -0.52855 0.47833v1.4805l0.22496 0.32118 0.22496 0.32117h0.9788l0.22496-0.32117zm1.8146-0.89199v-1.6467l1.1727-0.1118 0.46134 0.14912 0.46134 0.14913v1.2691l-0.57804 0.32052-0.05354 0.0295-0.05354 0.0294 0.90189 1.2264v0.23208h-0.39923l-0.4-0.54191-0.4-0.54192-0.44564-0.36128h-0.23378v1.4451h-0.43353zm1.5132-0.42781 0.26787-0.19587-0.09203-0.23984-0.09203-0.23983-0.77981-0.29648-0.38369 0.1472v1.0206h0.81183zm1.8105 0.42781v-1.6467l1.1727-0.1118 0.46134 0.14912 0.46134 0.14913v1.2691l-0.57804 0.32052-0.05354 0.0295-0.05354 0.0294 0.90189 1.2264v0.23208h-0.39923l-0.4-0.54191-0.4-0.54192-0.44564-0.36128h-0.23378v1.4451h-0.43353zm1.5132-0.42781 0.26787-0.19587-0.09203-0.23984-0.09203-0.23983-0.7798-0.29648-0.38369 0.1472v1.0206h0.81183zm2.2079 1.9184-0.2529-0.1473-0.43353-0.83835 0.001156-1.2427 0.27797-0.45588 0.27797-0.45587 0.88809-0.195 0.83077 0.1824 0.32793 0.34906 0.32793 0.34907 0.13516 1.4067-0.23435 0.45318-0.23435 0.45318-0.27803 0.1488-0.27803 0.14879-1.1028-8e-3 -0.2529-0.1473zm1.5453-0.59863 0.22496-0.32117v-1.1108l-0.33229-0.6313-0.31801-0.21234-0.6998-4e-3 -0.52855 0.47833v1.4805l0.22496 0.32118 0.22496 0.32117h0.9788l0.22496-0.32117zm2.1799 0.57408-0.05917-0.18064-0.75708-2.8487 0.14948-0.1494 0.41655 0.1598 0.51678 2.1921 0.1983-0.22078 0.2508-1.0477 0.2508-1.0477h0.63858l0.25526 1.0828 0.25526 1.0828 0.11002 0.068 0.11002 0.068 0.52565-2.3015h0.53077v0.078l-0.55323 2.0174-0.32498 1.2283h-0.5464l-0.21785-0.75868-0.21785-0.75869-0.09684-0.3964-0.09684-0.39641-0.11011 0.0681-0.11012 0.0681-0.17994 1.0902-0.15257 0.54192-0.15257 0.54191h-0.57353zm-45.959-6.6837-0.14451-0.0495-1.4068-0.19 0.1299-1.5665 0.14794-0.148 1.2375 0.43662h1.5822l1.0044-1.0044-0.19116-0.65746-0.7365-0.61988-1.9996-0.78453-0.43106-0.36271-0.43106-0.36272-0.42315-0.81829v-1.5852l0.15414-0.40682 0.15414-0.40681 0.63105-0.67776 0.80201-0.41722 1.6048-0.29667 2.0609 0.31976 0.11934 0.1194-0.09766 0.78166-0.09766 0.78167-1.068-0.38134-1.5396-0.012-0.84484 0.84484 0.0046 0.33627 0.0046 0.33626 0.36914 0.48554 3.0403 1.4233 0.68537 0.96252 0.0593 0.81979 0.0593 0.81978-0.29213 0.66041-0.29213 0.6604-0.55469 0.36469-0.55469 0.36468-1.3006 0.29615-1.3006-0.016-0.14451-0.0495zm27.778-0.0762-0.54661-0.13794-0.78542-0.40864-0.63651-0.6817-0.51021-1.1522-0.10752-7.1533h1.9045v5.7662l0.15531 0.72418 0.15531 0.72418 1 0.87805h1.2769l0.74326-0.33865 0.6432-1.0342 0.09148-6.7198h1.8775l-0.04515 3.6534-0.04514 3.6534-0.36966 0.71769-0.36965 0.71768-1.6035 0.82008-2.2815 0.1094zm-42.879-4.7582v-4.7758h1.8826l-0.0762 9.4655-1.8064 0.086zm3.7573-7e-3v-4.7689l2.3844 4e-3 3.4683 6.7832 0.21677 4e-3v-6.792h1.7341v9.5378h-2.2546l-3.5476-6.9366h-0.13366l-0.13366-1e-5v6.9366h-1.7341zm19.365 0.72256v-4.0463h-2.7457v-1.4451h7.3701v1.4451h-2.7457v8.0926h-1.8786zm5.7805-0.71566v-4.7758h1.8826l-0.0762 9.4655-1.8064 0.086zm5.6359 0.71566v-4.0463h-2.7457v-1.4451h7.3701v1.4451h-2.7457v8.0926h-1.8786zm17.486 0v-4.0463h-2.7457v-1.4451h7.3701v1.4451h-2.7457v8.0926h-1.8786zm5.925-0.71944v-4.772h5.4914v1.4451h-3.6128v2.3122h3.3238v1.5896h-3.3238v2.6012h3.7724l-0.04368 0.75869-0.04368 0.75868-5.5637 0.0785zm-57.949-12.576v-4.7689h3.1801l3.0932 6.1944 0.12256-0.0757 0.12256-0.0758-0.10172-3.0214-0.10172-3.0214h2.3557v9.5378l-3.107-6e-3 -3.1793-6.2311-0.21677-0.1382v6.3756h-2.1677v-4.7689zm10.405 0v-4.7689h6.6475v1.7341h-4.204l0.08546 1.9509 3.8296 0.0806v1.7174l-3.8296 0.0806-0.08492 2.0954h4.348v1.8786h-6.792zm9.7774 4.6605-0.06648-0.10838-1.9264-8.8152-0.07241-0.25289-0.07241-0.2529h2.5751l1.0743 6.5753 0.06709 0.20132 0.06709 0.20133 0.14266-0.1426 0.51179-2.8757 0.51179-2.8757 0.1656-1.0838h3.2363l0.63347 3.4683 0.63347 3.4683h0.2276v-0.30819l1.0247-6.1226 0.07542-0.25289 0.07542-0.2529h2.3922l-1.9734 8.8874-0.1571 0.6597-3.2312-0.0816-0.19714-1.0116-0.54614-2.9986-0.54614-2.9986h-0.18373l-0.47642 2.8541-0.47642 2.8541-0.28387 1.3728h-3.1382zm16.847-48.989 0.03822-4.4437 9.1765-0.0764v8.9638h-9.2529z" fill="#62783a"/>
  <path d="m17.464 363.39v-2.2399h0.42538l0.08042 3.9741 1.6619 0.0866v0.41911h-2.1677zm3.0347 0.58437v-1.6682h2.0232l5.2e-4 0.36128h-1.5179l-0.09056 0.93932h1.3189v0.41692l-1.2283 0.0888v1.0116l1.681 0.0872-0.05723 0.17315-0.05724 0.17314-2.0723 0.085zm2.6012 1.5884v-0.0671l1.1907-3.1895h0.65704l0.10208 0.2529 0.10208 0.25289 0.98286 2.6878v0.1302h-0.44828l-0.21133-0.50579-0.21133-0.50579h-1.3115l-0.42266 1.0116h-0.42966zm1.9413-1.7031-0.10129-0.32515-0.24328-0.6503h-0.15882l-0.24328 0.6503-0.20258 0.6503h1.0505zm1.816 0.12845v-1.682h1.718l0.81093 0.69753v1.7526l-0.75272 0.75271-1.7762 0.161zm1.7069 0.91363 0.31627-0.29465v-1.3891l-0.55901-0.5059-0.95836-0.0446-0.04292 1.0703-0.04291 1.0703 0.07451 0.19417 0.07451 0.19416h0.82164zm1.7614-0.92737v-1.6682h2.0232l5.78e-4 0.36128h-1.5179l-0.09056 0.93932h1.3189v0.41692l-1.2283 0.0888v1.0116l1.681 0.0872-0.05723 0.17315-0.05723 0.17314-2.0723 0.085v-1.6682zm3.0347-6e-3v-1.6619h1.6789l0.50984 0.37281-0.04666 0.55765-0.04666 0.55764-0.57805 0.3183-0.10708 0.0588 0.90189 1.2264v0.23209h-0.37184l-1.0789-1.4451h-0.42793v1.4451h-0.43353zm1.5839-0.42659 0.17414-0.20982-0.04806-0.24786-0.04806-0.24787-0.80435-0.26798-0.212 0.0814-0.212 0.0813v1.0206h0.97619zm1.7784 1.9404-0.32274-0.1298 0.0843-0.21967 0.08429-0.21967 0.53015 0.28373h0.97278l0.17341-0.17341 0.17341-0.17342v-0.48517l-0.86707-0.32409-0.42873-0.16005-0.42873-0.16006-0.18022-0.56782 0.08184-0.32607 0.08184-0.32608 0.74309-0.33857h0.69014l0.73585 0.27977-0.16788 0.4375-0.53015-0.28373h-0.85068l-0.3598 0.43353 0.16495 0.19876 0.16495 0.19875 1.3075 0.36606 0.42119 0.60134v0.52688l-0.70942 0.70942-1.2415-0.018-0.32274-0.1298zm5.308-2.0557-2.89e-4 -2.2038 2.3476 0.0954-0.12574 0.12469-0.12574 0.12468-1.5896 0.0888-0.0881 1.3729h1.4609v0.4177l-1.3729 0.088-0.08492 2.0954h-0.42087l-2.89e-4 -2.2038zm3.1633 1.7978-0.45438-0.40599-0.13956-1.4523 0.23034-0.44543 0.23034-0.44543 1.0176-0.33584 0.82977 0.1822 0.32793 0.34906 0.32793 0.34907 0.13516 1.4067-0.23978 0.46368-0.23978 0.46367-0.72753 0.27661h-0.84368zm1.67-0.34873 0.22496-0.32117v-1.3808l-0.57804-0.57804h-0.77206l-0.52855 0.47833v1.4805l0.22496 0.32117 0.22496 0.32118h0.9788zm1.8146-0.90717v-1.6619h1.6789l0.25492 0.1864 0.25492 0.18641-0.04666 0.55764-0.04666 0.55765-0.28902 0.15915-0.28902 0.15914-0.05354 0.0295-0.05354 0.0294 0.90189 1.2264v0.23208h-0.37184l-0.53944-0.72255-0.53944-0.72256h-0.42793v1.4451h-0.43353zm1.5839-0.42659 0.17414-0.20982-0.04806-0.24787-0.04806-0.24786-0.80435-0.26798-0.212 0.0813-0.212 0.0814v1.0206h0.97619zm4.582 1.9921-0.09634-0.0963v-3.8536h-1.1561v-0.43353h2.8902v0.41692l-1.2283 0.0888-0.08042 3.9741h-0.2327zm2.055-0.30964-0.45438-0.40599-0.06978-0.72617-0.06977-0.72617 0.23034-0.44543 0.23034-0.44543 1.0176-0.33584 0.82977 0.1822 0.32793 0.34906 0.32793 0.34907 0.13516 1.4067-0.47955 0.92735-0.72753 0.2766h-0.84369zm1.67-0.34873 0.22496-0.32117v-1.3808l-0.28902-0.28902-0.28902-0.28903h-0.77206l-0.26427 0.23917-0.26427 0.23916v1.4805l0.22496 0.32117 0.22496 0.32118h0.9788zm1.6312 0.64633-0.05589-0.10838 0.14302-1.5608 0.14302-1.5608 0.732 0.087 0.72505 2.2399 0.15802-0.00144 0.34619-1.1554 0.34619-1.1554h0.64956l0.07454 0.19425 0.07454 0.19424 0.10538 1.4863 0.10538 1.4863-0.40116-0.1326-0.12372-1.1895-0.12372-1.1895-0.1861 0.1822-0.74699 2.2197h-0.4091l-0.89225-2.5801-0.09382 0.35071-0.09382 0.3507-0.0078 1.3006-0.17428 0.6503h-0.23826l-0.05589-0.10838zm4.9359-0.2976-0.45438-0.40599-0.06977-0.72617-0.06978-0.72617 0.23034-0.44543 0.23034-0.44543 1.0176-0.33584 0.82977 0.1822 0.32793 0.34906 0.32793 0.34907 0.13516 1.4067-0.47955 0.92735-0.72753 0.2766h-0.84369zm1.67-0.34873 0.22496-0.32117v-1.3808l-0.28902-0.28902-0.28902-0.28903h-0.77206l-0.26427 0.23917-0.26427 0.23916v1.4805l0.22496 0.32117 0.22496 0.32118h0.9788zm1.8146-0.90717v-1.6619h1.6789l0.25492 0.1864 0.25492 0.18641-0.04666 0.55764-0.04666 0.55765-0.28902 0.15915-0.28902 0.15914-0.05354 0.0295-0.05354 0.0294 0.90189 1.2264v0.23208h-0.37184l-0.53944-0.72255-0.53944-0.72256h-0.42793v1.4451h-0.43353zm1.5839-0.42659 0.17414-0.20982-0.04806-0.24787-0.04806-0.24786-0.80435-0.26798-0.212 0.0813-0.212 0.0814v1.0206h0.97619zm1.7399 0.42659v-1.6619h1.6789l0.25492 0.1864 0.25492 0.18641-0.04666 0.55764-0.04666 0.55765-0.28902 0.15915-0.28902 0.15914-0.05354 0.0295-0.05354 0.0294 0.90189 1.2264v0.23208h-0.37184l-0.53944-0.72255-0.53944-0.72256h-0.42793v1.4451h-0.43354zm1.5839-0.42659 0.17414-0.20982-0.04806-0.24787-0.04806-0.24786-0.80435-0.26798-0.212 0.0813-0.212 0.0814v1.0206h0.97619zm2.0126 1.6825-0.45438-0.40599-0.06978-0.72617-0.06977-0.72617 0.23034-0.44543 0.23034-0.44543 1.0176-0.33584 0.82977 0.1822 0.32793 0.34906 0.32793 0.34907 0.13516 1.4067-0.47955 0.92735-0.72753 0.2766h-0.84369zm1.67-0.34873 0.22496-0.32117v-1.3808l-0.28902-0.28902-0.28902-0.28903h-0.77206l-0.26427 0.23917-0.26427 0.23916v1.4805l0.22496 0.32117 0.22496 0.32118h0.9788zm2.0354-0.0401-0.2208-0.79481-0.22532-0.81035-0.22532-0.81034 0.07458-0.0746 0.07457-0.0746 0.41655 0.1598 0.51583 2.188 0.08196-2.8e-4 0.08196-2.9e-4 0.27257-1.1558 0.27257-1.1558h0.63036l0.25526 1.0828 0.25526 1.0828 0.11002 0.068 0.11002 0.068 0.26283-1.1508 0.26283-1.1508h0.53077v0.078l-0.55323 2.0174-0.32498 1.2283h-0.55576l-0.15008-0.57804-0.15008-0.57805-0.15126-0.5824-0.15126-0.58241-0.23757 0.1468-0.17994 1.0902-0.15257 0.54192-0.15257 0.54191h-0.55639l-0.2208-0.79481zm-46.226-6.1488-0.70089-0.1176-0.44414-0.1704 0.08754-0.7391 0.08753-0.73911 0.1084-0.1084 1.2375 0.43662 0.74052-5.8e-4 0.74052-5.7e-4 0.45054-0.27474 0.45054-0.27473 0.20106-0.8011-0.52464-0.7027-3.0282-1.4862-0.58406-0.81601v-2.2412l0.83352-1.0928 1.1896-0.54024 2.3122-4e-3 1.1189 0.1848-0.17064 1.4408-0.13874 0.1388-0.92495-0.32244h-1.5687l-0.84484 0.84484 0.0046 0.33627 0.0046 0.33626 0.36914 0.48554 3.0403 1.4233 0.68537 0.96252 0.0593 0.81978 0.0593 0.81979-0.58426 1.3208-1.1161 0.73862-1.5501 0.29396-0.89988-0.034-0.70089-0.1176zm28.664 0.0603-0.36128-0.0693-0.50579-0.15434-0.50579-0.15435-0.48684-0.36384-0.48684-0.36385-0.61201-1.332-0.10208-7.1533h1.9045l7e-3 5.8527 0.14938 0.6503 0.14937 0.6503 0.76159 0.79664 0.47076 0.12998 0.47076 0.12999 0.517-0.11661 0.517-0.1166 0.47114-0.38987 0.5259-1.1561 0.0064-6.4308h1.8967l-0.04515 3.6534-0.04514 3.6534-0.36966 0.71769-0.36965 0.71768-0.78644 0.39733-0.78644 0.39732-2.0232 0.1234zm-43.353-4.8155v-4.7758h1.8826l-0.0762 9.4655-1.8064 0.086zm3.7573-7e-3v-4.7689l2.3844 6e-3 1.8064 3.5017 1.8064 3.5017 0.0387-3.5044 0.0387-3.5044h1.729v9.5378l-2.2399-4e-3 -3.6122-7.0493-0.10865 0.0671-0.10865 0.0672v6.9195h-1.7341zm19.365 0.72256v-4.0463h-2.7457v-1.4451h7.3701v1.4451h-2.7457v8.0926h-1.8786zm5.7805-0.71566v-4.7758h1.8826l-0.0762 9.4655-1.8064 0.086zm5.6359 0.71566v-4.0463h-2.7457v-1.4451h7.3701v1.4451h-2.7457v8.0926h-1.8786zm17.486 0v-4.0463h-2.7457v-1.4451h7.3701v1.4451h-2.7457v8.0926h-1.8786zm5.925-0.71944v-4.772h5.4914v1.4451h-3.6128v2.3122h3.3238v1.5896h-3.3238v2.6012h3.7724l-0.04368 0.75869-0.04368 0.75868-5.5637 0.0785zm-57.949-12.576v-4.7689h3.1801l3.103 6.214h0.2439l-0.10457-3.107-0.10457-3.107h2.3528v9.5475l-3.107-0.082-3.1793-6.2859-0.10838-1.4e-4 -0.10838-2.3e-4v6.3585h-2.1677zm10.405 0v-4.7689h6.6475v1.7341h-4.204l0.08546 1.9509 3.8296 0.0806v1.7174l-3.8296 0.0806-0.08492 2.0954h4.348v1.8786h-6.792zm9.7581 4.5882-0.05959-0.18063-1.9054-8.6707-0.07677-0.25289-0.07677-0.2529h2.5751l1.0743 6.5753 0.07816 0.21677 0.07816 0.21676 0.22012-0.57804 1.1151-6.4308h3.2085l1.2475 6.8643 0.10099 0.11361 0.10098 0.11362 0.53944-3.2929 0.53944-3.2929 0.07202-0.25289 0.07202-0.2529h2.3922l-1.9734 8.8874-0.15474 0.6503h-3.1543l-0.07391-0.25289-0.07391-0.2529-1.1934-6.5-0.1234-0.1234-0.10254 0.1204-0.45829 2.7457-0.45829 2.7457-0.15098 0.75869-0.15099 0.75868h-3.1678z" fill="#414141"/>
 </g>
</svg>
